<svg width="154" height="23" viewBox="0 0 154 23" fill="none" xmlns="http://www.w3.org/2000/svg">
<g clip-path="url(#clip0_8011_3797)">
<path d="M32.5196 3.49386C32.5196 3.42354 32.5759 3.36377 32.6497 3.36377H38.8693C40.3038 3.36377 41.443 3.53957 42.2833 3.88765C43.1237 4.23573 43.7249 4.72446 44.0941 5.35031C44.4597 5.97615 44.6426 6.70748 44.6426 7.54428C44.6426 8.29318 44.4773 8.96825 44.1503 9.58003C43.855 10.1285 43.3838 10.5715 42.7299 10.9231C42.6349 10.9759 42.6384 11.1095 42.7334 11.1552C43.5667 11.549 44.1644 12.0553 44.5265 12.6706C44.9238 13.3386 45.1242 14.0946 45.1242 14.9349C45.1242 16.3518 44.6426 17.5015 43.6827 18.3735C42.7193 19.2525 41.1688 19.685 39.0275 19.685H32.6462C32.5759 19.685 32.5161 19.6287 32.5161 19.5549V3.49386H32.5196ZM38.683 9.92812C39.6147 9.92812 40.2827 9.75935 40.6906 9.42533C41.0985 9.09131 41.2989 8.58853 41.2989 7.91697C41.2989 7.24542 41.0914 6.76373 40.6695 6.46839C40.2476 6.16953 39.5198 6.02186 38.4826 6.02186H35.93C35.8596 6.02186 35.7999 6.07811 35.7999 6.15195V9.80506C35.7999 9.87537 35.8561 9.93515 35.93 9.93515H38.69H38.6865L38.683 9.92812ZM38.7498 17.0374C39.91 17.0374 40.7011 16.8441 41.1195 16.4538C41.5415 16.0635 41.7489 15.5115 41.7489 14.7942C41.7489 14.0172 41.5309 13.4371 41.0844 13.0573C40.6414 12.6776 39.8995 12.4842 38.8623 12.4842H35.9194C35.8491 12.4842 35.7893 12.5405 35.7893 12.6143V16.9073C35.7893 16.9777 35.8456 17.0374 35.9194 17.0374H38.7463H38.7498Z" fill="#010101"/>
<path d="M47.0612 7.75117H50.1272C50.1975 7.75117 50.2573 7.80742 50.2573 7.88126V8.96067C50.2573 9.08021 50.4085 9.13646 50.4858 9.04153C51.3261 8.04651 52.3809 7.54724 53.6502 7.54724C53.8612 7.54724 54.0686 7.55427 54.2585 7.56834C54.4096 7.57889 54.5503 7.6035 54.6839 7.63163C54.7472 7.64569 54.7894 7.70898 54.7823 7.77578L54.4237 10.4339C54.4132 10.5042 54.3464 10.5534 54.276 10.5429C54.1249 10.5218 53.9772 10.5007 53.833 10.4831C53.6502 10.462 53.4498 10.4479 53.2353 10.4479C52.8696 10.4479 52.518 10.4971 52.1911 10.5956C51.8641 10.694 51.5547 10.8593 51.2628 11.0878C50.971 11.3164 50.746 11.5977 50.5772 11.9317C50.4085 12.2657 50.3241 12.663 50.3241 13.1201V19.5543C50.3241 19.6246 50.2678 19.6844 50.194 19.6844H47.0612C46.9909 19.6844 46.9312 19.6282 46.9312 19.5543V7.88126C46.9312 7.81094 46.9874 7.75117 47.0612 7.75117Z" fill="#010101"/>
<path d="M65.8371 19.6881H63.1158C63.0454 19.6881 62.9857 19.6318 62.9857 19.558V18.5946C62.9857 18.4786 62.8485 18.4223 62.7642 18.5032C62.3528 18.9145 61.8922 19.2521 61.3648 19.5158C60.746 19.8287 60.0076 19.9834 59.1532 19.9834C57.9437 19.9834 56.9628 19.674 56.2068 19.0587C55.4509 18.4399 55.0747 17.5539 55.0747 16.3971C55.0747 15.6201 55.24 14.9731 55.5669 14.4563C55.8939 13.9394 56.3369 13.5316 56.896 13.2327C57.455 12.9339 58.0984 12.7194 58.8298 12.5823C59.5611 12.4451 60.3276 12.3643 61.1222 12.3291L62.7642 12.2658C62.8345 12.2658 62.8872 12.206 62.8872 12.1357V11.8474C62.8872 11.0844 62.722 10.5465 62.395 10.2265C62.068 9.90659 61.5441 9.74837 60.8269 9.74837C60.1096 9.74837 59.6033 9.87495 59.2693 10.1246C58.9599 10.3566 58.7454 10.6766 58.6329 11.0844C58.6153 11.1442 58.5626 11.1864 58.4993 11.1829L55.8623 10.9508C55.7849 10.9438 55.7322 10.87 55.7463 10.7961C55.9783 9.64992 56.5092 8.80257 57.346 8.25056C58.218 7.67746 59.4134 7.39618 60.9429 7.39618C62.7149 7.39618 63.9912 7.80403 64.7823 8.61974C65.5699 9.43545 65.9637 10.6133 65.9637 12.1533V19.5685C65.9637 19.6388 65.9074 19.6986 65.8336 19.6986L65.8371 19.6881ZM58.9036 14.9309C58.4606 15.2228 58.2391 15.6482 58.2391 16.2107C58.2391 16.6538 58.3762 16.9983 58.654 17.2515C58.9317 17.5046 59.3537 17.6277 59.9373 17.6277C60.8409 17.6277 61.5547 17.3991 62.0926 16.9421C62.627 16.485 62.8942 15.8381 62.8942 15.0012V14.4492C62.8942 14.3754 62.831 14.3156 62.7571 14.3191L61.2664 14.4035C60.1377 14.4633 59.3501 14.6426 58.9071 14.9274" fill="#010101"/>
<path d="M68.2883 7.75142H71.4245C71.4949 7.75142 71.5546 7.80768 71.5546 7.88151V19.5581C71.5546 19.6284 71.4984 19.6881 71.4245 19.6881H68.2883C68.218 19.6881 68.1582 19.6319 68.1582 19.5581V7.88151C68.1582 7.81119 68.2145 7.75142 68.2883 7.75142ZM68.3586 3.20172H71.3296C71.3999 3.20172 71.4597 3.25798 71.4597 3.33182V5.75083C71.4597 5.82115 71.4035 5.88092 71.3296 5.88092H68.3586C68.2883 5.88092 68.2285 5.82466 68.2285 5.75083V3.33182C68.2285 3.2615 68.2848 3.20172 68.3586 3.20172Z" fill="#010101"/>
<path d="M73.9103 7.75086H76.9762C77.0465 7.75086 77.1063 7.80711 77.1063 7.88095V8.91816C77.1063 9.03419 77.2504 9.09396 77.3313 9.00254C77.8552 8.42592 78.3931 8.01807 78.9416 7.78601C79.5675 7.5188 80.2179 7.38519 80.8895 7.38519C82.2009 7.38519 83.1995 7.75437 83.8675 8.49273C84.5391 9.23108 84.8731 10.2964 84.8731 11.6782V19.5505C84.8731 19.6208 84.8168 19.6806 84.743 19.6806H81.5857C81.5153 19.6806 81.4556 19.6243 81.4556 19.5505V12.3181C81.4556 11.5551 81.3149 11.0137 81.0301 10.6867C80.7453 10.3597 80.3129 10.1945 79.7362 10.1945C79.4022 10.1945 79.0682 10.2542 78.7412 10.3773C78.4142 10.5004 78.1259 10.6902 77.8833 10.9504C77.6548 11.1789 77.4755 11.4215 77.3594 11.6817C77.2364 11.9419 77.1766 12.2759 77.1766 12.6873V19.554C77.1766 19.6243 77.1204 19.6841 77.0465 19.6841H73.9138C73.8435 19.6841 73.7837 19.6278 73.7837 19.554V7.88095C73.7837 7.81063 73.8399 7.75086 73.9138 7.75086" fill="#010101"/>
<path d="M86.5247 16.0533H89.3269C89.3867 16.0533 89.4394 16.0955 89.45 16.1553C89.5801 16.6967 89.8403 17.0835 90.2305 17.312C90.6454 17.5581 91.215 17.6777 91.9499 17.6777C92.6847 17.6777 93.2508 17.5617 93.5637 17.3366C93.8766 17.1081 94.0348 16.7811 94.0348 16.3557C94.0348 16.0357 93.9258 15.7544 93.7149 15.5118C93.4969 15.2657 93.0574 15.0899 92.3823 14.988L91.0076 14.7559C89.5238 14.4957 88.4268 14.0949 87.7166 13.5429C87.0099 12.9909 86.6513 12.1646 86.6513 11.0501C86.6513 9.93549 87.1154 9.01078 88.0506 8.36384C88.9824 7.7169 90.213 7.39343 91.7424 7.39343C92.8886 7.39343 93.8168 7.53759 94.5271 7.82941C95.2373 8.11773 95.7858 8.51855 96.1761 9.03188C96.5382 9.50654 96.7914 10.0656 96.9355 10.7055C96.9531 10.7793 96.8968 10.8532 96.8195 10.8602L94.1087 11.1555C94.0489 11.1626 93.9926 11.1239 93.9751 11.0676C93.8239 10.6281 93.5989 10.2906 93.307 10.055C92.9941 9.80188 92.4773 9.67882 91.76 9.67882C90.9794 9.67882 90.4345 9.8054 90.1356 10.055C89.8297 10.3082 89.6785 10.6035 89.6785 10.9375C89.6785 11.2716 89.7981 11.5423 90.0336 11.7497C90.2692 11.9572 90.7404 12.1189 91.4436 12.242L92.9589 12.5162C93.9997 12.699 94.8224 12.9487 95.4342 13.2616C96.046 13.5745 96.4855 13.9789 96.7492 14.4746C97.0129 14.9704 97.1535 15.5997 97.1535 16.3592C97.1535 17.4878 96.7246 18.3844 95.8702 19.0559C95.0123 19.724 93.7289 20.0615 92.0167 20.0615C90.3044 20.0615 89.0597 19.7486 88.0541 19.1263C87.0486 18.5004 86.5247 17.5476 86.3946 16.208C86.3876 16.1342 86.4473 16.0674 86.5247 16.0674H86.5282L86.5247 16.0533Z" fill="#010101"/>
<path d="M103.269 15.571C103.269 16.0738 103.385 16.4676 103.613 16.7489C103.842 17.0301 104.2 17.1743 104.693 17.1743C104.953 17.1743 105.192 17.1567 105.417 17.118C105.589 17.0899 105.751 17.0512 105.913 17.009C105.987 16.9915 106.06 17.0337 106.074 17.111L106.489 19.3718C106.5 19.4351 106.465 19.4984 106.401 19.5195C106.011 19.639 105.617 19.7339 105.227 19.8043C104.798 19.8781 104.316 19.9203 103.782 19.9203C102.298 19.9203 101.275 19.5406 100.709 18.7776C100.143 18.0146 99.8617 16.9036 99.8617 15.4409V10.5396C99.8617 10.4693 99.8055 10.4096 99.7316 10.4096H98.0861C98.0158 10.4096 97.9561 10.3533 97.9561 10.2795V7.88508C97.9561 7.81476 98.0123 7.75499 98.0861 7.75499H99.7316C99.802 7.75499 99.8617 7.69873 99.8617 7.62489V4.70663C99.8617 4.63631 99.918 4.57654 99.9918 4.57654H103.149C103.219 4.57654 103.279 4.63279 103.279 4.70663V7.62489C103.279 7.69521 103.336 7.75499 103.409 7.75499H105.972C106.043 7.75499 106.103 7.81124 106.103 7.88508V10.2795C106.103 10.3498 106.046 10.4096 105.972 10.4096H103.409C103.339 10.4096 103.279 10.4658 103.279 10.5396V15.578L103.272 15.5675L103.269 15.571Z" fill="#010101"/>
<path d="M112.905 20.051C111.01 20.051 109.551 19.5095 108.538 18.4196C107.526 17.3296 107.012 15.8001 107.012 13.8382C107.012 12.467 107.255 11.3032 107.747 10.3433C108.236 9.38348 108.918 8.65215 109.797 8.14937C110.676 7.64658 111.703 7.39343 112.88 7.39343C114.73 7.39343 116.119 7.93841 117.043 9.02836C117.968 10.1183 118.432 11.5599 118.432 13.3601V14.3762C118.432 14.4465 118.376 14.5063 118.302 14.5063H110.275C110.201 14.5063 110.138 14.5731 110.145 14.6469C110.328 16.7002 111.235 17.7269 112.859 17.7269C113.622 17.7269 114.192 17.5792 114.558 17.2804C114.902 17.0026 115.134 16.6264 115.264 16.1517C115.278 16.0955 115.327 16.0568 115.387 16.0568H118.137C118.218 16.0568 118.281 16.1306 118.263 16.215C118.031 17.3894 117.486 18.3211 116.632 18.9962C115.735 19.7064 114.494 20.0615 112.905 20.0615V20.0545V20.051ZM110.328 12.3932H115.24C115.313 12.3932 115.377 12.3264 115.37 12.2525C115.299 11.4227 115.092 10.7899 114.761 10.3609C114.41 9.90384 113.784 9.67531 112.88 9.67531C111.977 9.67531 111.347 9.92142 110.943 10.4066C110.563 10.8637 110.314 11.479 110.198 12.249C110.187 12.3264 110.247 12.3967 110.328 12.3967V12.3932Z" fill="#010101"/>
<path d="M120.38 7.75086H123.446C123.516 7.75086 123.576 7.80711 123.576 7.88095V8.91465C123.576 9.03419 123.724 9.09044 123.805 8.99903C124.708 7.92314 125.795 7.38519 127.064 7.38519C128.576 7.38519 129.631 7.98291 130.228 9.18538C130.27 9.26976 130.386 9.28031 130.446 9.20647C131.42 7.98994 132.647 7.38519 134.124 7.38519C135.316 7.38519 136.234 7.72624 136.888 8.41538C137.538 9.10099 137.861 10.1382 137.861 11.5235V19.5575C137.861 19.6278 137.805 19.6876 137.731 19.6876H134.574C134.504 19.6876 134.444 19.6314 134.444 19.5575V12.0755C134.444 11.3618 134.321 10.866 134.078 10.6023C133.832 10.3351 133.474 10.2015 132.999 10.2015C132.707 10.2015 132.426 10.2507 132.151 10.3492C131.874 10.4511 131.614 10.6129 131.371 10.8414C131.188 11.0242 131.04 11.2387 130.924 11.4813C130.808 11.7274 130.752 11.9982 130.752 12.3041V19.561C130.752 19.6314 130.696 19.6911 130.622 19.6911H127.486C127.415 19.6911 127.356 19.6349 127.356 19.561V12.1001C127.356 11.4145 127.229 10.9258 126.979 10.6375C126.726 10.3456 126.364 10.2015 125.89 10.2015C125.278 10.2015 124.747 10.4406 124.286 10.9117C124.135 11.0805 123.987 11.2914 123.85 11.5516C123.713 11.8118 123.646 12.1388 123.646 12.5326V19.5575C123.646 19.6278 123.59 19.6876 123.516 19.6876H120.384C120.313 19.6876 120.253 19.6314 120.253 19.5575V7.88446C120.253 7.81414 120.31 7.75437 120.384 7.75437L120.38 7.75086Z" fill="#010101"/>
<path d="M151.975 8.27248C152.956 8.27248 153.754 7.47787 153.754 6.49691C153.754 5.51595 152.956 4.72485 151.975 4.72485C150.994 4.72485 150.196 5.51947 150.196 6.49691C150.196 7.47435 150.994 8.27248 151.975 8.27248Z" stroke="#010101" stroke-width="0.6" stroke-miterlimit="10"/>
<path d="M151.366 5.65543H151.989C152.15 5.65543 152.277 5.67653 152.372 5.72224C152.467 5.76794 152.537 5.82772 152.576 5.90507C152.618 5.9789 152.636 6.0668 152.636 6.16173C152.636 6.27073 152.614 6.36215 152.572 6.4395C152.527 6.51685 152.46 6.58014 152.372 6.62584L152.723 7.33959H152.351L152.052 6.7032H151.711V7.33607H151.363V5.65192L151.366 5.65543ZM151.985 6.42543C152.105 6.42543 152.182 6.40434 152.228 6.36214C152.27 6.31644 152.291 6.25667 152.291 6.1758C152.291 6.09493 152.27 6.03867 152.224 5.99648C152.179 5.95429 152.094 5.93671 151.971 5.93671H151.714V6.42895H151.989L151.985 6.42543Z" fill="#010101"/>
<path d="M138.892 16.0533H141.694C141.754 16.0533 141.807 16.0955 141.817 16.1553C141.947 16.6967 142.207 17.0835 142.598 17.312C143.013 17.5581 143.582 17.6777 144.317 17.6777C145.052 17.6777 145.618 17.5617 145.931 17.3366C146.244 17.1081 146.402 16.7811 146.402 16.3557C146.402 16.0357 146.293 15.7544 146.082 15.5118C145.864 15.2657 145.424 15.0899 144.749 14.988L143.375 14.7559C141.891 14.4957 140.794 14.0949 140.087 13.5429C139.381 12.9909 139.022 12.1646 139.022 11.0501C139.022 9.93549 139.486 9.01078 140.421 8.36384C141.353 7.7169 142.584 7.39343 144.113 7.39343C145.259 7.39343 146.187 7.53759 146.898 7.82941C147.608 8.11773 148.156 8.51855 148.547 9.03188C148.909 9.50654 149.162 10.0656 149.306 10.7055C149.324 10.7793 149.267 10.8532 149.19 10.8602L146.479 11.1555C146.419 11.1626 146.363 11.1239 146.346 11.0676C146.194 10.6281 145.969 10.2906 145.678 10.055C145.365 9.80188 144.848 9.67882 144.131 9.67882C143.35 9.67882 142.805 9.8054 142.506 10.055C142.2 10.3082 142.049 10.6035 142.049 10.9375C142.049 11.2716 142.169 11.5423 142.404 11.7497C142.64 11.9572 143.111 12.1189 143.814 12.242L145.33 12.5162C146.37 12.699 147.193 12.9487 147.805 13.2616C148.417 13.5745 148.856 13.9789 149.12 14.4746C149.383 14.9704 149.524 15.5997 149.524 16.3592C149.524 17.4878 149.095 18.3844 148.241 19.0559C147.383 19.724 146.1 20.0615 144.387 20.0615C142.675 20.0615 141.43 19.7486 140.425 19.1263C139.419 18.5004 138.895 17.5476 138.765 16.208C138.758 16.1342 138.818 16.0674 138.895 16.0674H138.899L138.892 16.0533Z" fill="#010101"/>
<path d="M27.0484 5.9548C27.0484 7.34712 26.4824 8.60936 25.5717 9.52352C24.6576 10.4377 23.3988 11.0002 22.003 11.0002H4.4231C4.4688 9.51649 5.4357 8.05735 5.81894 7.53347C6.17054 7.14671 6.38501 6.63338 6.38501 6.07082C6.38501 4.86836 5.41109 3.89443 4.20862 3.89443C3.00616 3.89443 2.03223 4.86836 2.03223 6.07082C2.03223 6.52439 2.16935 6.94279 2.40492 7.29087C2.45415 7.35416 2.50337 7.41744 2.54908 7.48073C3.46323 8.71484 3.78319 9.92082 3.79374 11.0002H1.42396C0.685608 11.0002 0.0878906 10.4025 0.0878906 9.66416V2.39662C0.0878906 1.65826 0.685608 1.06055 1.42396 1.06055H22.1507C24.8545 1.06055 27.0449 3.251 27.0449 5.9548" fill="url(#paint0_linear_8011_3797)"/>
<path d="M27.0484 17.0934C27.0484 15.7011 26.4824 14.4388 25.5717 13.5247C24.6576 12.6105 23.3988 12.048 22.003 12.048H4.4231C4.4688 13.5317 5.4357 14.9908 5.81894 15.5147C6.17054 15.9015 6.38501 16.4148 6.38501 16.9774C6.38501 18.1798 5.41109 19.1538 4.20862 19.1538C3.00616 19.1538 2.03223 18.1798 2.03223 16.9774C2.03223 16.5238 2.16935 16.1054 2.40492 15.7573C2.45415 15.694 2.50337 15.6308 2.54908 15.5675C3.46323 14.3334 3.78319 13.1274 3.79374 12.048H1.42396C0.685608 12.048 0.0878906 12.6457 0.0878906 13.384V20.6516C0.0878906 21.3899 0.685608 21.9877 1.42396 21.9877H22.1507C24.8545 21.9877 27.0449 19.7972 27.0449 17.0934" fill="url(#paint1_linear_8011_3797)"/>
</g>
<defs>
<linearGradient id="paint0_linear_8011_3797" x1="4.19807" y1="14.3193" x2="20.8181" y2="-2.30423" gradientUnits="userSpaceOnUse">
<stop stop-color="#4EA0D8"/>
<stop offset="0.08" stop-color="#588FCC"/>
<stop offset="0.26" stop-color="#6C6DB4"/>
<stop offset="0.41" stop-color="#7859A6"/>
<stop offset="0.51" stop-color="#7D52A1"/>
<stop offset="0.68" stop-color="#7F52A0"/>
<stop offset="0.77" stop-color="#8752A0"/>
<stop offset="0.84" stop-color="#94539F"/>
<stop offset="0.9" stop-color="#A7549D"/>
<stop offset="0.95" stop-color="#C0559C"/>
<stop offset="1" stop-color="#DF579A"/>
</linearGradient>
<linearGradient id="paint1_linear_8011_3797" x1="4.21917" y1="25.3278" x2="20.797" y2="8.74998" gradientUnits="userSpaceOnUse">
<stop stop-color="#4EA0D8"/>
<stop offset="0.08" stop-color="#588FCC"/>
<stop offset="0.26" stop-color="#6C6DB4"/>
<stop offset="0.41" stop-color="#7859A6"/>
<stop offset="0.51" stop-color="#7D52A1"/>
<stop offset="0.68" stop-color="#7F52A0"/>
<stop offset="0.77" stop-color="#8752A0"/>
<stop offset="0.84" stop-color="#94539F"/>
<stop offset="0.9" stop-color="#A7549D"/>
<stop offset="0.95" stop-color="#C0559C"/>
<stop offset="1" stop-color="#DF579A"/>
</linearGradient>
<clipPath id="clip0_8011_3797">
<rect width="154" height="21.4475" fill="white" transform="translate(0 0.776245)"/>
</clipPath>
</defs>
</svg>
