<svg width="154" height="23" viewBox="0 0 154 23" fill="none" xmlns="http://www.w3.org/2000/svg">
<g clip-path="url(#clip0_207_17)">
<path d="M33.0156 3.99386H33.0191V3.86377H38.8688C40.2708 3.86377 41.3364 4.03678 42.0915 4.34959C42.8551 4.66589 43.3601 5.09153 43.6624 5.60345C43.9765 6.14141 44.1421 6.78267 44.1421 7.54428C44.1421 8.2159 43.9948 8.80906 43.7092 9.34369C43.4692 9.78908 43.0782 10.1679 42.4926 10.4827L42.4926 10.4827L42.4866 10.4861C42.0498 10.7287 42.0427 11.3778 42.516 11.6057L42.5193 11.6073C43.2874 11.9703 43.7966 12.4169 44.0951 12.9242L44.0963 12.9262C44.4442 13.5111 44.6238 14.1775 44.6238 14.9349C44.6238 16.2256 44.1911 17.2357 43.346 18.0034L43.3452 18.0041C42.5182 18.7587 41.1205 19.185 39.027 19.185H33.0156V3.99386ZM38.6895 10.4351V10.4281C39.6556 10.4273 40.4651 10.2559 41.0069 9.81216C41.5628 9.35693 41.7984 8.69139 41.7984 7.91697C41.7984 7.13969 41.5523 6.47701 40.9569 6.05957C40.3997 5.66554 39.5348 5.52186 38.4821 5.52186H35.9295C35.5919 5.52186 35.2994 5.7932 35.2994 6.15195V9.80506C35.2994 10.1427 35.5707 10.4351 35.9295 10.4351H38.377H38.686H38.6895ZM38.7493 17.5374C39.9233 17.5374 40.8901 17.3505 41.4593 16.8201C42.0084 16.3118 42.2484 15.6117 42.2484 14.7942C42.2484 13.9254 42.002 13.1822 41.4086 12.6771C40.8278 12.1798 39.9362 11.9842 38.8618 11.9842H35.9189C35.5813 11.9842 35.2888 12.2556 35.2888 12.6143V16.9073C35.2888 17.2449 35.5602 17.5374 35.9189 17.5374H38.7458H38.7493Z" fill="#F9F9F9" stroke="#F9F9F9"/>
<path d="M49.7578 8.96079C49.7578 9.53955 50.4889 9.8225 50.8703 9.36193C51.6184 8.47721 52.5345 8.04736 53.6507 8.04736C53.851 8.04736 54.046 8.05406 54.222 8.06709L54.222 8.0671L54.2242 8.06725C54.2291 8.06759 54.234 8.06795 54.2388 8.06833L53.9786 9.99751C53.9503 9.99386 53.9221 9.99031 53.894 9.98689L53.894 9.98687L53.8908 9.9865C53.6918 9.96354 53.4721 9.94805 53.2358 9.94805C52.8255 9.94805 52.425 10.0033 52.0474 10.1169C51.6546 10.2352 51.2904 10.4317 50.9551 10.6943C50.6019 10.9709 50.3312 11.3109 50.1314 11.7063C49.9203 12.1243 49.8246 12.6022 49.8246 13.1202V19.1845H47.4316V8.25129H49.7578V8.96079Z" fill="#F9F9F9" stroke="#F9F9F9"/>
<mask id="path-3-inside-1_207_17" fill="white">
<path d="M65.8366 19.6884H63.1153C63.0449 19.6884 62.9852 19.6321 62.9852 19.5583V18.5949C62.9852 18.4789 62.8481 18.4226 62.7637 18.5035C62.3523 18.9148 61.8917 19.2524 61.3643 19.5161C60.7455 19.829 60.0071 19.9837 59.1528 19.9837C57.9433 19.9837 56.9623 19.6743 56.2064 19.059C55.4504 18.4402 55.0742 17.5542 55.0742 16.3974C55.0742 15.6204 55.2395 14.9734 55.5665 14.4566C55.8934 13.9397 56.3365 13.5319 56.8955 13.233C57.4545 12.9342 58.098 12.7197 58.8293 12.5826C59.5606 12.4454 60.3271 12.3646 61.1217 12.3294L62.7637 12.2661C62.834 12.2661 62.8867 12.2063 62.8867 12.136V11.8477C62.8867 11.0847 62.7215 10.5468 62.3945 10.2268C62.0675 9.9069 61.5436 9.74868 60.8264 9.74868C60.1091 9.74868 59.6028 9.87525 59.2688 10.1249C58.9594 10.3569 58.7449 10.6769 58.6324 11.0847C58.6148 11.1445 58.5621 11.1867 58.4988 11.1832L55.8618 10.9511C55.7844 10.9441 55.7317 10.8703 55.7458 10.7964C55.9778 9.65023 56.5087 8.80288 57.3455 8.25087C58.2175 7.67776 59.4129 7.39648 60.9424 7.39648C62.7144 7.39648 63.9907 7.80434 64.7818 8.62005C65.5694 9.43575 65.9632 10.6136 65.9632 12.1536V19.5688C65.9632 19.6391 65.907 19.6989 65.8331 19.6989L65.8366 19.6884ZM58.9031 14.9312C58.4601 15.2231 58.2386 15.6485 58.2386 16.2111C58.2386 16.6541 58.3757 16.9986 58.6535 17.2518C58.9312 17.5049 59.3532 17.628 59.9368 17.628C60.8404 17.628 61.5542 17.3995 62.0921 16.9424C62.6265 16.4853 62.8938 15.8384 62.8938 15.0016V14.4495C62.8938 14.3757 62.8305 14.3159 62.7566 14.3195L61.2659 14.4038C60.1372 14.4636 59.3497 14.6429 58.9066 14.9277"/>
</mask>
<path d="M65.8366 19.6884H63.1153C63.0449 19.6884 62.9852 19.6321 62.9852 19.5583V18.5949C62.9852 18.4789 62.8481 18.4226 62.7637 18.5035C62.3523 18.9148 61.8917 19.2524 61.3643 19.5161C60.7455 19.829 60.0071 19.9837 59.1528 19.9837C57.9433 19.9837 56.9623 19.6743 56.2064 19.059C55.4504 18.4402 55.0742 17.5542 55.0742 16.3974C55.0742 15.6204 55.2395 14.9734 55.5665 14.4566C55.8934 13.9397 56.3365 13.5319 56.8955 13.233C57.4545 12.9342 58.098 12.7197 58.8293 12.5826C59.5606 12.4454 60.3271 12.3646 61.1217 12.3294L62.7637 12.2661C62.834 12.2661 62.8867 12.2063 62.8867 12.136V11.8477C62.8867 11.0847 62.7215 10.5468 62.3945 10.2268C62.0675 9.9069 61.5436 9.74868 60.8264 9.74868C60.1091 9.74868 59.6028 9.87525 59.2688 10.1249C58.9594 10.3569 58.7449 10.6769 58.6324 11.0847C58.6148 11.1445 58.5621 11.1867 58.4988 11.1832L55.8618 10.9511C55.7844 10.9441 55.7317 10.8703 55.7458 10.7964C55.9778 9.65023 56.5087 8.80288 57.3455 8.25087C58.2175 7.67776 59.4129 7.39648 60.9424 7.39648C62.7144 7.39648 63.9907 7.80434 64.7818 8.62005C65.5694 9.43575 65.9632 10.6136 65.9632 12.1536V19.5688C65.9632 19.6391 65.907 19.6989 65.8331 19.6989L65.8366 19.6884ZM58.9031 14.9312C58.4601 15.2231 58.2386 15.6485 58.2386 16.2111C58.2386 16.6541 58.3757 16.9986 58.6535 17.2518C58.9312 17.5049 59.3532 17.628 59.9368 17.628C60.8404 17.628 61.5542 17.3995 62.0921 16.9424C62.6265 16.4853 62.8938 15.8384 62.8938 15.0016V14.4495C62.8938 14.3757 62.8305 14.3159 62.7566 14.3195L61.2659 14.4038C60.1372 14.4636 59.3497 14.6429 58.9066 14.9277" fill="#F9F9F9"/>
<path d="M65.8366 19.6884L66.7852 20.0049L67.2245 18.6884H65.8366V19.6884ZM62.7637 18.5035L62.0718 17.7815L62.0641 17.7888L62.0566 17.7964L62.7637 18.5035ZM61.3643 19.5161L60.9171 18.6216L60.913 18.6237L61.3643 19.5161ZM56.2064 19.059L55.5729 19.8328L55.5751 19.8346L56.2064 19.059ZM61.1217 12.3294L61.0832 11.3301L61.0775 11.3304L61.1217 12.3294ZM62.7637 12.2661V11.2661H62.7444L62.7252 11.2669L62.7637 12.2661ZM59.2688 10.1249L58.6701 9.32387L58.6688 9.32489L59.2688 10.1249ZM58.6324 11.0847L59.5918 11.3669L59.5941 11.3588L59.5964 11.3507L58.6324 11.0847ZM58.4988 11.1832L58.4111 12.1793L58.4272 12.1808L58.4433 12.1817L58.4988 11.1832ZM55.8618 10.9511L55.7713 11.947L55.7741 11.9473L55.8618 10.9511ZM55.7458 10.7964L54.7656 10.598L54.7634 10.6093L55.7458 10.7964ZM57.3455 8.25087L56.7963 7.41521L56.7949 7.41613L57.3455 8.25087ZM64.7818 8.62005L65.5012 7.92545L65.4997 7.92385L64.7818 8.62005ZM65.8331 19.6989L64.8845 19.3824L64.4452 20.6989H65.8331V19.6989ZM62.0921 16.9424L62.7396 17.7044L62.7421 17.7023L62.0921 16.9424ZM62.7566 14.3195L62.7091 13.3205L62.7001 13.3211L62.7566 14.3195ZM61.2659 14.4038L61.3187 15.4024L61.3224 15.4022L61.2659 14.4038ZM65.8366 18.6884H63.1153V20.6884H65.8366V18.6884ZM63.1153 18.6884C63.5796 18.6884 63.9852 19.0623 63.9852 19.5583H61.9852C61.9852 20.2019 62.5103 20.6884 63.1153 20.6884V18.6884ZM63.9852 19.5583V18.5949H61.9852V19.5583H63.9852ZM63.9852 18.5949C63.9852 17.5551 62.7607 17.1213 62.0718 17.7815L63.4556 19.2255C62.9354 19.7239 61.9852 19.4027 61.9852 18.5949H63.9852ZM62.0566 17.7964C61.7179 18.135 61.3443 18.408 60.9171 18.6216L61.8115 20.4105C62.4391 20.0967 62.9867 19.6947 63.4708 19.2106L62.0566 17.7964ZM60.913 18.6237C60.4644 18.8506 59.8882 18.9837 59.1528 18.9837V20.9837C60.1261 20.9837 61.0266 20.8074 61.8156 20.4085L60.913 18.6237ZM59.1528 18.9837C58.118 18.9837 57.3766 18.7221 56.8376 18.2834L55.5751 19.8346C56.548 20.6265 57.7686 20.9837 59.1528 20.9837V18.9837ZM56.8398 18.2852C56.36 17.8924 56.0742 17.3164 56.0742 16.3974H54.0742C54.0742 17.7919 54.5408 18.9879 55.5729 19.8328L56.8398 18.2852ZM56.0742 16.3974C56.0742 15.7609 56.209 15.3114 56.4115 14.9912L54.7214 13.9219C54.2699 14.6355 54.0742 15.4799 54.0742 16.3974H56.0742ZM56.4115 14.9912C56.6426 14.6259 56.9546 14.3354 57.3669 14.1149L56.424 12.3511C55.7183 12.7284 55.1442 13.2535 54.7214 13.9219L56.4115 14.9912ZM57.3669 14.1149C57.8197 13.8729 58.3627 13.6875 59.0136 13.5654L58.645 11.5997C57.8333 11.7519 57.0894 11.9954 56.424 12.3511L57.3669 14.1149ZM59.0136 13.5654C59.6911 13.4384 60.4099 13.3619 61.1659 13.3284L61.0775 11.3304C60.2443 11.3673 59.4301 11.4525 58.645 11.5997L59.0136 13.5654ZM61.1602 13.3287L62.8022 13.2654L62.7252 11.2669L61.0832 11.3301L61.1602 13.3287ZM62.7637 13.2661C63.4574 13.2661 63.8867 12.6847 63.8867 12.136H61.8867C61.8867 11.728 62.2106 11.2661 62.7637 11.2661V13.2661ZM63.8867 12.136V11.8477H61.8867V12.136H63.8867ZM63.8867 11.8477C63.8867 10.9818 63.706 10.1111 63.0939 9.5121L61.6951 10.9416C61.737 10.9825 61.8867 11.1877 61.8867 11.8477H63.8867ZM63.0939 9.5121C62.4962 8.92724 61.6579 8.74868 60.8264 8.74868V10.7487C61.4293 10.7487 61.6388 10.8865 61.6951 10.9416L63.0939 9.5121ZM60.8264 8.74868C60.0225 8.74868 59.2578 8.88469 58.6701 9.32388L59.8674 10.9259C59.9478 10.8658 60.1957 10.7487 60.8264 10.7487V8.74868ZM58.6688 9.32489C58.1695 9.69932 57.8354 10.2134 57.6684 10.8188L59.5964 11.3507C59.6544 11.1404 59.7492 11.0146 59.8688 10.9249L58.6688 9.32489ZM57.673 10.8026C57.7708 10.47 58.1009 10.1596 58.5543 10.1847L58.4433 12.1817C59.0232 12.2139 59.4588 11.819 59.5918 11.3669L57.673 10.8026ZM58.5864 10.187L55.9495 9.95499L55.7741 11.9473L58.4111 12.1793L58.5864 10.187ZM55.9523 9.95525C56.4828 10.0035 56.8209 10.4964 56.7281 10.9836L54.7634 10.6093C54.6425 11.2442 55.0861 11.8847 55.7713 11.947L55.9523 9.95525ZM56.7259 10.9949C56.915 10.061 57.3196 9.46593 57.8962 9.08561L56.7949 7.41613C55.6978 8.13983 55.0407 9.2395 54.7657 10.598L56.7259 10.9949ZM57.8948 9.08653C58.5427 8.66068 59.5196 8.39648 60.9424 8.39648V6.39648C59.3063 6.39648 57.8923 6.69485 56.7963 7.41521L57.8948 9.08653ZM60.9424 8.39648C62.5908 8.39648 63.5435 8.77955 64.064 9.31624L65.4997 7.92385C64.438 6.82913 62.8381 6.39648 60.9424 6.39648V8.39648ZM64.0624 9.31464C64.6135 9.88537 64.9632 10.778 64.9632 12.1536H66.9632C66.9632 10.4492 66.5254 8.98614 65.5012 7.92545L64.0624 9.31464ZM64.9632 12.1536V19.5688H66.9632V12.1536H64.9632ZM64.9632 19.5688C64.9632 19.1046 65.3371 18.6989 65.8331 18.6989V20.6989C66.4768 20.6989 66.9632 20.1737 66.9632 19.5688H64.9632ZM66.7817 20.0154L66.7852 20.0049L64.8881 19.3718L64.8845 19.3824L66.7817 20.0154ZM58.353 14.0961C57.6105 14.5853 57.2386 15.3352 57.2386 16.2111H59.2386C59.2386 15.9618 59.3097 15.8609 59.4532 15.7663L58.353 14.0961ZM57.2386 16.2111C57.2386 16.8797 57.4564 17.5137 57.9799 17.9909L59.3271 16.5127C59.2951 16.4835 59.2386 16.4284 59.2386 16.2111H57.2386ZM57.9799 17.9909C58.5215 18.4845 59.2382 18.628 59.9368 18.628V16.628C59.4681 16.628 59.341 16.5254 59.3271 16.5127L57.9799 17.9909ZM59.9368 18.628C61.0119 18.628 61.9764 18.3529 62.7396 17.7044L61.4446 16.1803C61.1319 16.446 60.6689 16.628 59.9368 16.628V18.628ZM62.7421 17.7023C63.5413 17.0188 63.8938 16.0695 63.8938 15.0016H61.8938C61.8938 15.6072 61.7118 15.9518 61.4421 16.1824L62.7421 17.7023ZM63.8938 15.0016V14.4495H61.8938V15.0016H63.8938ZM63.8938 14.4495C63.8938 13.7985 63.347 13.2902 62.7091 13.3206L62.8042 15.3183C62.314 15.3417 61.8938 14.9529 61.8938 14.4495H63.8938ZM62.7001 13.3211L61.2093 13.4054L61.3224 15.4022L62.8131 15.3179L62.7001 13.3211ZM61.213 13.4052C60.0598 13.4663 59.0434 13.651 58.3659 14.0865L59.4474 15.7689C59.6559 15.6348 60.2146 15.4609 61.3187 15.4024L61.213 13.4052Z" fill="#F9F9F9" mask="url(#path-3-inside-1_207_17)"/>
<path d="M68.6582 19.1881V8.25136H71.0546V19.1881H68.6582ZM68.7285 5.38086V3.70166H70.9597V5.38086H68.7285Z" fill="#F9F9F9" stroke="#F9F9F9"/>
<mask id="path-6-inside-2_207_17" fill="white">
<path d="M73.9098 7.75092H76.9757C77.046 7.75092 77.1058 7.80717 77.1058 7.88101V8.91822C77.1058 9.03425 77.25 9.09402 77.3308 9.00261C77.8547 8.42598 78.3927 8.01813 78.9411 7.78608C79.567 7.51886 80.2174 7.38525 80.889 7.38525C82.2005 7.38525 83.199 7.75443 83.867 8.49279C84.5386 9.23114 84.8726 10.2965 84.8726 11.6783V19.5506C84.8726 19.6209 84.8164 19.6806 84.7425 19.6806H81.5852C81.5148 19.6806 81.4551 19.6244 81.4551 19.5506V12.3182C81.4551 11.5552 81.3144 11.0137 81.0296 10.6868C80.7448 10.3598 80.3124 10.1945 79.7358 10.1945C79.4017 10.1945 79.0677 10.2543 78.7407 10.3774C78.4137 10.5004 78.1254 10.6903 77.8828 10.9505C77.6543 11.179 77.475 11.4216 77.359 11.6818C77.2359 11.942 77.1761 12.276 77.1761 12.6874V19.5541C77.1761 19.6244 77.1199 19.6842 77.046 19.6842H73.9133C73.843 19.6842 73.7832 19.6279 73.7832 19.5541V7.88101C73.7832 7.81069 73.8395 7.75092 73.9133 7.75092"/>
</mask>
<path d="M73.9098 7.75092H76.9757C77.046 7.75092 77.1058 7.80717 77.1058 7.88101V8.91822C77.1058 9.03425 77.25 9.09402 77.3308 9.00261C77.8547 8.42598 78.3927 8.01813 78.9411 7.78608C79.567 7.51886 80.2174 7.38525 80.889 7.38525C82.2005 7.38525 83.199 7.75443 83.867 8.49279C84.5386 9.23114 84.8726 10.2965 84.8726 11.6783V19.5506C84.8726 19.6209 84.8164 19.6806 84.7425 19.6806H81.5852C81.5148 19.6806 81.4551 19.6244 81.4551 19.5506V12.3182C81.4551 11.5552 81.3144 11.0137 81.0296 10.6868C80.7448 10.3598 80.3124 10.1945 79.7358 10.1945C79.4017 10.1945 79.0677 10.2543 78.7407 10.3774C78.4137 10.5004 78.1254 10.6903 77.8828 10.9505C77.6543 11.179 77.475 11.4216 77.359 11.6818C77.2359 11.942 77.1761 12.276 77.1761 12.6874V19.5541C77.1761 19.6244 77.1199 19.6842 77.046 19.6842H73.9133C73.843 19.6842 73.7832 19.6279 73.7832 19.5541V7.88101C73.7832 7.81069 73.8395 7.75092 73.9133 7.75092" fill="#F9F9F9"/>
<path d="M77.3308 9.00261L76.5906 8.3301L76.5818 8.34003L77.3308 9.00261ZM78.9411 7.78608L79.3308 8.70705L79.3338 8.70575L78.9411 7.78608ZM83.867 8.49279L83.1255 9.1637L83.1273 9.16564L83.867 8.49279ZM77.8828 10.9505L78.5899 11.6576L78.6023 11.6452L78.6142 11.6324L77.8828 10.9505ZM77.359 11.6818L78.2629 12.1093L78.2677 12.0993L78.2723 12.0891L77.359 11.6818ZM73.9098 8.75092H76.9757V6.75092H73.9098V8.75092ZM76.9757 8.75092C76.5114 8.75092 76.1058 8.37698 76.1058 7.88101H78.1058C78.1058 7.23736 77.5806 6.75092 76.9757 6.75092V8.75092ZM76.1058 7.88101V8.91822H78.1058V7.88101H76.1058ZM76.1058 8.91822C76.1058 9.91669 77.3637 10.4747 78.0798 9.66518L76.5818 8.34003C77.1362 7.71331 78.1058 8.15181 78.1058 8.91822H76.1058ZM78.071 9.67505C78.5275 9.17256 78.9516 8.86747 79.3308 8.70704L78.5515 6.86511C77.8337 7.1688 77.1819 7.67941 76.5907 8.33016L78.071 9.67505ZM79.3338 8.70575C79.8369 8.49096 80.3539 8.38525 80.889 8.38525V6.38525C80.081 6.38525 79.2971 6.54677 78.5485 6.8664L79.3338 8.70575ZM80.889 8.38525C82.0148 8.38525 82.7035 8.69732 83.1255 9.1637L84.6086 7.82187C83.6945 6.81154 82.3862 6.38525 80.889 6.38525V8.38525ZM83.1273 9.16564C83.5752 9.65809 83.8726 10.4468 83.8726 11.6783H85.8726C85.8726 10.1462 85.502 8.8042 84.6068 7.81994L83.1273 9.16564ZM83.8726 11.6783V19.5506H85.8726V11.6783H83.8726ZM83.8726 19.5506C83.8726 19.0863 84.2465 18.6806 84.7425 18.6806V20.6806C85.3862 20.6806 85.8726 20.1554 85.8726 19.5506H83.8726ZM84.7425 18.6806H81.5852V20.6806H84.7425V18.6806ZM81.5852 18.6806C82.0494 18.6806 82.4551 19.0545 82.4551 19.5506H80.4551C80.4551 20.1942 80.9803 20.6806 81.5852 20.6806V18.6806ZM82.4551 19.5506V12.3182H80.4551V19.5506H82.4551ZM82.4551 12.3182C82.4551 11.4811 82.3103 10.6345 81.7837 10.03L80.2756 11.3435C80.3186 11.393 80.4551 11.6293 80.4551 12.3182H82.4551ZM81.7837 10.03C81.2524 9.41999 80.5025 9.19452 79.7358 9.19452V11.1945C80.1222 11.1945 80.2373 11.2996 80.2756 11.3435L81.7837 10.03ZM79.7358 9.19452C79.2807 9.19452 78.8274 9.27628 78.3885 9.44144L79.093 11.3133C79.3081 11.2323 79.5228 11.1945 79.7358 11.1945V9.19452ZM78.3885 9.44144C77.9209 9.61741 77.5018 9.89273 77.1514 10.2685L78.6142 11.6324C78.749 11.4878 78.9066 11.3834 79.093 11.3133L78.3885 9.44144ZM77.1757 10.2434C76.884 10.5351 76.6234 10.876 76.4457 11.2745L78.2723 12.0891C78.3266 11.9672 78.4246 11.8229 78.5899 11.6576L77.1757 10.2434ZM76.455 11.2542C76.2466 11.6948 76.1761 12.1904 76.1761 12.6874H78.1761C78.1761 12.3615 78.2252 12.1891 78.2629 12.1093L76.455 11.2542ZM76.1761 12.6874V19.5541H78.1761V12.6874H76.1761ZM76.1761 19.5541C76.1761 19.0898 76.55 18.6842 77.046 18.6842V20.6842C77.6897 20.6842 78.1761 20.1589 78.1761 19.5541H76.1761ZM77.046 18.6842H73.9133V20.6842H77.046V18.6842ZM73.9133 18.6842C74.3776 18.6842 74.7832 19.0581 74.7832 19.5541H72.7832C72.7832 20.1977 73.3084 20.6842 73.9133 20.6842V18.6842ZM74.7832 19.5541V7.88101H72.7832V19.5541H74.7832ZM74.7832 7.88101C74.7832 8.34525 74.4093 8.75092 73.9133 8.75092V6.75092C73.2696 6.75092 72.7832 7.27612 72.7832 7.88101H74.7832Z" fill="#F9F9F9" mask="url(#path-6-inside-2_207_17)"/>
<path d="M88.3183 18.7015C87.5691 18.2351 87.1231 17.5583 86.9479 16.5675H87.1692L87.1657 16.5534H89.0458C89.2211 17.0637 89.5241 17.4771 89.9771 17.7429C90.5003 18.0528 91.1713 18.1778 91.9503 18.1778C92.7045 18.1778 93.4082 18.0647 93.8561 17.7427L93.8561 17.7427L93.8591 17.7405C94.3136 17.4086 94.5353 16.9244 94.5353 16.3558C94.5353 15.9108 94.3798 15.514 94.0927 15.1839L94.0927 15.1839L94.0897 15.1804C93.7471 14.7937 93.1513 14.5989 92.4618 14.4943L91.0929 14.2633C89.6412 14.0086 88.6395 13.6265 88.0244 13.1486C87.4663 12.7124 87.1518 12.0483 87.1518 11.0502C87.1518 10.0949 87.5392 9.32601 88.3356 8.77517L88.3363 8.77467C89.1596 8.20298 90.2806 7.89355 91.7429 7.89355C92.8538 7.89355 93.7102 8.03423 94.3375 8.29202L94.3375 8.29202L94.3395 8.29282C94.9818 8.55358 95.4517 8.90476 95.7785 9.33461L95.779 9.33529C96.0168 9.64697 96.2036 10.0043 96.3367 10.41L94.3394 10.6276C94.1671 10.2407 93.9295 9.91473 93.6218 9.66624C93.1716 9.30225 92.509 9.17894 91.7605 9.17894C90.9624 9.17894 90.2597 9.30103 89.8164 9.67068C89.4181 10.0007 89.179 10.4289 89.179 10.9377C89.179 11.4069 89.3542 11.8173 89.7037 12.1251C89.8907 12.2897 90.1359 12.4082 90.3995 12.4999C90.6684 12.5934 90.9899 12.6702 91.3564 12.7344L92.8704 13.0083L92.8704 13.0084L92.8729 13.0088C93.8867 13.1869 94.656 13.4251 95.207 13.7069C95.749 13.9841 96.1027 14.3232 96.3082 14.7095C96.5241 15.1154 96.654 15.6592 96.654 16.3593C96.654 17.3399 96.2913 18.0891 95.5625 18.6623C94.8295 19.2326 93.676 19.5616 92.0171 19.5616C90.367 19.5616 89.2219 19.2606 88.3183 18.7015Z" fill="#F9F9F9" stroke="#F9F9F9"/>
<path d="M102.778 10.5398V15.3538L105.499 17.6113C105.551 17.6028 105.602 17.5934 105.652 17.5834L105.936 19.133C105.67 19.2046 105.404 19.2642 105.139 19.312C104.741 19.3804 104.288 19.4204 103.781 19.4204C102.364 19.4204 101.538 19.0569 101.11 18.4798C100.634 17.8385 100.361 16.8513 100.361 15.441V10.5398C100.361 10.2022 100.089 9.90967 99.7307 9.90967H98.4551V8.25511H99.7307C100.068 8.25511 100.361 7.98375 100.361 7.62502V5.07666H102.778V7.62502C102.778 7.96262 103.05 8.25511 103.408 8.25511H105.602V9.90967H103.408C103.071 9.90967 102.778 10.181 102.778 10.5398Z" fill="#F9F9F9" stroke="#F9F9F9"/>
<path d="M116.321 18.6044C115.621 19.1589 114.649 19.4894 113.357 19.5511H112.904C111.107 19.5511 109.797 19.0405 108.904 18.0794C108.001 17.1075 107.512 15.7139 107.512 13.8383C107.512 12.5245 107.744 11.4437 108.191 10.5716L108.191 10.5716L108.192 10.5703C108.64 9.69105 109.256 9.03458 110.045 8.58351C110.837 8.13025 111.776 7.89355 112.88 7.89355C114.629 7.89355 115.858 8.40513 116.662 9.35195C117.492 10.3305 117.932 11.6476 117.932 13.3602V14.0064H110.275C109.919 14.0064 109.612 14.3132 109.646 14.6914C109.743 15.7735 110.035 16.6633 110.586 17.2877C111.152 17.929 111.933 18.227 112.859 18.227C113.668 18.227 114.376 18.0737 114.872 17.6687C115.236 17.3747 115.494 16.9981 115.658 16.5569H117.666C117.418 17.4164 116.966 18.0944 116.321 18.604L116.321 18.6044ZM110.558 10.0867L110.558 10.0872C110.105 10.6327 109.828 11.3412 109.703 12.1746L109.703 12.1746L109.702 12.1816C109.65 12.558 109.942 12.8968 110.327 12.8968H110.827V12.8933H115.239C115.594 12.8933 115.901 12.5866 115.867 12.2087C115.792 11.3281 115.568 10.5893 115.157 10.0559C114.667 9.41952 113.85 9.17543 112.88 9.17543C111.887 9.17543 111.09 9.44887 110.558 10.0867Z" fill="#F9F9F9" stroke="#F9F9F9"/>
<path d="M134.124 7.88525C135.217 7.88525 135.989 8.19436 136.525 8.75957C137.054 9.31642 137.362 10.2064 137.362 11.5236V19.1877H134.944V12.0756C134.944 11.3433 134.826 10.6762 134.447 10.2638L134.447 10.2636C134.079 9.86493 133.569 9.70156 132.999 9.70156C132.65 9.70156 132.311 9.76082 131.983 9.87863L131.983 9.87862L131.98 9.87985C131.634 10.0068 131.317 10.2062 131.029 10.4775L131.023 10.4826L131.018 10.4879C130.791 10.7146 130.612 10.9769 130.474 11.2656L130.473 11.2682C130.321 11.5895 130.253 11.9345 130.253 12.3041V19.1912H127.856V12.1002C127.856 11.3791 127.728 10.7377 127.358 10.3102L127.358 10.3099C126.988 9.88341 126.473 9.70156 125.89 9.70156C125.129 9.70156 124.473 10.0056 123.929 10.5623L123.922 10.57L123.914 10.5782C123.733 10.7806 123.563 11.0261 123.408 11.3186C123.222 11.6721 123.147 12.086 123.147 12.5327V19.1877H120.754V8.25443H121.592L121.588 8.25092H123.077V8.91471C123.077 9.50282 123.799 9.76042 124.18 9.33038L124.18 9.33049L124.188 9.32066C125.008 8.34423 125.96 7.88525 127.064 7.88525C127.755 7.88525 128.307 8.0216 128.742 8.26912C129.174 8.51457 129.522 8.88612 129.781 9.408L129.782 9.40904C129.994 9.83401 130.558 9.86417 130.835 9.52114L130.837 9.51902C131.721 8.4143 132.808 7.88525 134.124 7.88525Z" fill="#F9F9F9" stroke="#F9F9F9"/>
<path d="M151.974 8.27272C152.955 8.27272 153.753 7.47811 153.753 6.49715C153.753 5.51619 152.955 4.7251 151.974 4.7251C150.993 4.7251 150.195 5.51971 150.195 6.49715C150.195 7.4746 150.993 8.27272 151.974 8.27272Z" fill="#F9F9F9" stroke="#F9F9F9" stroke-width="0.6" stroke-miterlimit="10"/>
<mask id="path-13-inside-3_207_17" fill="white">
<path d="M151.367 5.65537H151.989C152.151 5.65537 152.277 5.67647 152.372 5.72218C152.467 5.76788 152.538 5.82765 152.576 5.90501C152.618 5.97884 152.636 6.06674 152.636 6.16167C152.636 6.27067 152.615 6.36208 152.573 6.43944C152.527 6.51679 152.46 6.58007 152.372 6.62578L152.724 7.33953H152.351L152.052 6.70313H151.711V7.33601H151.363V5.65186L151.367 5.65537ZM151.986 6.42537C152.105 6.42537 152.183 6.40428 152.228 6.36208C152.27 6.31638 152.292 6.2566 152.292 6.17574C152.292 6.09487 152.27 6.03861 152.225 5.99642C152.179 5.95423 152.095 5.93665 151.972 5.93665H151.715V6.42889H151.989L151.986 6.42537Z"/>
</mask>
<path d="M151.367 5.65537H151.989C152.151 5.65537 152.277 5.67647 152.372 5.72218C152.467 5.76788 152.538 5.82765 152.576 5.90501C152.618 5.97884 152.636 6.06674 152.636 6.16167C152.636 6.27067 152.615 6.36208 152.573 6.43944C152.527 6.51679 152.46 6.58007 152.372 6.62578L152.724 7.33953H152.351L152.052 6.70313H151.711V7.33601H151.363V5.65186L151.367 5.65537ZM151.986 6.42537C152.105 6.42537 152.183 6.40428 152.228 6.36208C152.27 6.31638 152.292 6.2566 152.292 6.17574C152.292 6.09487 152.27 6.03861 152.225 5.99642C152.179 5.95423 152.095 5.93665 151.972 5.93665H151.715V6.42889H151.989L151.986 6.42537Z" fill="#F9F9F9"/>
<path d="M151.367 5.65537L150.66 6.36282L150.953 6.65537H151.367V5.65537ZM152.576 5.90501L151.682 6.35222L151.694 6.37705L151.708 6.40115L152.576 5.90501ZM152.573 6.43944L153.434 6.94816L153.442 6.93337L153.451 6.91829L152.573 6.43944ZM152.372 6.62578L151.911 5.73857L151.043 6.18997L151.475 7.06769L152.372 6.62578ZM152.724 7.33953V8.33953H154.331L153.621 6.89762L152.724 7.33953ZM152.351 7.33953L151.446 7.7646L151.716 8.33953H152.351V7.33953ZM152.052 6.70313L152.958 6.27806L152.688 5.70313H152.052V6.70313ZM151.711 6.70313V5.70313H150.711V6.70313H151.711ZM151.711 7.33601V8.33601H152.711V7.33601H151.711ZM151.363 7.33601H150.363V8.33601H151.363V7.33601ZM151.363 5.65186L152.07 4.94441L150.363 3.23927V5.65186H151.363ZM151.986 6.42537V5.42537H149.57L151.279 7.13282L151.986 6.42537ZM152.228 6.36208L152.906 7.09689L152.936 7.06976L152.963 7.04036L152.228 6.36208ZM151.715 5.93665V4.93665H150.715V5.93665H151.715ZM151.715 6.42889H150.715V7.42889H151.715V6.42889ZM151.989 6.42889V7.42889H154.405L152.696 5.72144L151.989 6.42889ZM151.367 6.65537H151.989V4.65537H151.367V6.65537ZM151.989 6.65537C152.029 6.65537 152.042 6.65811 152.036 6.65709C152.03 6.65607 151.993 6.64916 151.939 6.62318L152.806 4.82117C152.518 4.68224 152.219 4.65537 151.989 4.65537V6.65537ZM151.939 6.62318C151.907 6.6082 151.773 6.5353 151.682 6.35222L153.471 5.45779C153.302 5.12001 153.027 4.92757 152.806 4.82117L151.939 6.62318ZM151.708 6.40115C151.639 6.28084 151.636 6.18338 151.636 6.16167H153.636C153.636 5.9501 153.598 5.67685 153.445 5.40887L151.708 6.40115ZM151.636 6.16167C151.636 6.1394 151.641 6.05881 151.695 5.96058L153.451 6.91829C153.589 6.66536 153.636 6.40194 153.636 6.16167H151.636ZM151.712 5.93071C151.766 5.83885 151.842 5.77468 151.911 5.73857L152.834 7.513C153.079 7.38547 153.288 7.19473 153.434 6.94816L151.712 5.93071ZM151.475 7.06769L151.827 7.78143L153.621 6.89762L153.269 6.18388L151.475 7.06769ZM152.724 6.33953H152.351V8.33953H152.724V6.33953ZM153.256 6.91445L152.958 6.27806L151.147 7.12821L151.446 7.7646L153.256 6.91445ZM152.052 5.70313H151.711V7.70313H152.052V5.70313ZM150.711 6.70313V7.33601H152.711V6.70313H150.711ZM151.711 6.33601H151.363V8.33601H151.711V6.33601ZM152.363 7.33601V5.65186H150.363V7.33601H152.363ZM150.657 6.3593L150.66 6.36282L152.074 4.94793L152.07 4.94441L150.657 6.3593ZM151.986 7.42537C152.168 7.42537 152.573 7.40451 152.906 7.09689L151.55 5.62728C151.676 5.51055 151.805 5.4622 151.88 5.44261C151.95 5.42405 151.993 5.42537 151.986 5.42537V7.42537ZM152.963 7.04036C153.215 6.76781 153.292 6.44409 153.292 6.17574H151.292C151.292 6.13019 151.297 6.05216 151.33 5.95772C151.364 5.85853 151.419 5.76406 151.493 5.6838L152.963 7.04036ZM153.292 6.17574C153.292 5.90171 153.209 5.54445 152.903 5.26162L151.546 6.73123C151.456 6.64766 151.383 6.54095 151.338 6.42117C151.297 6.31008 151.292 6.21961 151.292 6.17574H153.292ZM152.903 5.26162C152.707 5.08057 152.491 5.00808 152.351 4.97598C152.207 4.94312 152.073 4.93665 151.972 4.93665V6.93665C151.993 6.93665 151.963 6.93897 151.904 6.92545C151.848 6.91269 151.697 6.87008 151.546 6.73123L152.903 5.26162ZM151.972 4.93665H151.715V6.93665H151.972V4.93665ZM150.715 5.93665V6.42889H152.715V5.93665H150.715ZM151.715 7.42889H151.989V5.42889H151.715V7.42889ZM152.696 5.72144L152.692 5.71793L151.279 7.13282L151.282 7.13633L152.696 5.72144Z" fill="#F9F9F9" mask="url(#path-13-inside-3_207_17)"/>
<path d="M140.689 18.7015C139.94 18.2351 139.494 17.5583 139.319 16.5675H139.709L139.702 16.5534H141.413C141.589 17.0637 141.892 17.4771 142.345 17.7429C142.868 18.0528 143.539 18.1778 144.318 18.1778C145.072 18.1778 145.776 18.0647 146.224 17.7427L146.224 17.7427L146.227 17.7405C146.681 17.4086 146.903 16.9244 146.903 16.3558C146.903 15.9108 146.747 15.514 146.46 15.1839L146.46 15.1839L146.457 15.1804C146.115 14.7937 145.519 14.5989 144.829 14.4943L143.46 14.2633C142.008 14.0084 141.007 13.6262 140.396 13.149C139.838 12.7128 139.523 12.0486 139.523 11.0502C139.523 10.0949 139.91 9.32601 140.707 8.77517L140.707 8.77467C141.531 8.20298 142.652 7.89355 144.114 7.89355C145.225 7.89355 146.081 8.03423 146.709 8.29202L146.709 8.29202L146.711 8.29282C147.353 8.55358 147.823 8.90476 148.15 9.33461L148.15 9.33529C148.388 9.64697 148.575 10.0043 148.708 10.41L146.71 10.6276C146.538 10.2407 146.301 9.91472 145.993 9.66624C145.543 9.30225 144.88 9.17894 144.132 9.17894C143.334 9.17894 142.631 9.30103 142.188 9.67068C141.789 10.0007 141.55 10.4289 141.55 10.9377C141.55 11.4069 141.725 11.8173 142.075 12.1251C142.262 12.2897 142.507 12.4082 142.771 12.4999C143.04 12.5934 143.361 12.6702 143.727 12.7344L145.241 13.0083L145.241 13.0084L145.244 13.0088C146.258 13.1869 147.027 13.4251 147.578 13.7069C148.12 13.9841 148.474 14.3232 148.679 14.7095C148.895 15.1154 149.025 15.6592 149.025 16.3593C149.025 17.3399 148.662 18.0891 147.934 18.6623C147.201 19.2326 146.047 19.5616 144.388 19.5616C142.738 19.5616 141.593 19.2606 140.689 18.7015Z" fill="#F9F9F9" stroke="#F9F9F9"/>
<path d="M27.0484 5.9548C27.0484 7.34712 26.4824 8.60936 25.5717 9.52352C24.6576 10.4377 23.3989 11.0002 22.003 11.0002H4.4231C4.4688 9.51649 5.4357 8.05735 5.81894 7.53347C6.17054 7.14671 6.38501 6.63338 6.38501 6.07082C6.38501 4.86836 5.41109 3.89443 4.20862 3.89443C3.00616 3.89443 2.03223 4.86836 2.03223 6.07082C2.03223 6.52439 2.16935 6.94279 2.40492 7.29087C2.45415 7.35416 2.50337 7.41744 2.54908 7.48073C3.46323 8.71484 3.78319 9.92082 3.79374 11.0002H1.42396C0.685608 11.0002 0.0878906 10.4025 0.0878906 9.66416V2.39662C0.0878906 1.65826 0.685608 1.06055 1.42396 1.06055H22.1507C24.8545 1.06055 27.0449 3.251 27.0449 5.9548" fill="url(#paint0_linear_207_17)"/>
<path d="M27.0484 17.0938C27.0484 15.7014 26.4824 14.4392 25.5717 13.5251C24.6576 12.6109 23.3989 12.0483 22.003 12.0483H4.4231C4.4688 13.5321 5.4357 14.9912 5.81894 15.5151C6.17054 15.9019 6.38501 16.4152 6.38501 16.9777C6.38501 18.1802 5.41109 19.1541 4.20862 19.1541C3.00616 19.1541 2.03223 18.1802 2.03223 16.9777C2.03223 16.5242 2.16935 16.1058 2.40492 15.7577C2.45415 15.6944 2.50337 15.6311 2.54908 15.5678C3.46323 14.3337 3.78319 13.1277 3.79374 12.0483H1.42396C0.685608 12.0483 0.0878906 12.6461 0.0878906 13.3844V20.6519C0.0878906 21.3903 0.685608 21.988 1.42396 21.988H22.1507C24.8545 21.988 27.0449 19.7976 27.0449 17.0938" fill="url(#paint1_linear_207_17)"/>
</g>
<defs>
<linearGradient id="paint0_linear_207_17" x1="4.19807" y1="14.3193" x2="20.8181" y2="-2.30423" gradientUnits="userSpaceOnUse">
<stop stop-color="#4EA0D8"/>
<stop offset="0.08" stop-color="#588FCC"/>
<stop offset="0.26" stop-color="#6C6DB4"/>
<stop offset="0.41" stop-color="#7859A6"/>
<stop offset="0.51" stop-color="#7D52A1"/>
<stop offset="0.68" stop-color="#7F52A0"/>
<stop offset="0.77" stop-color="#8752A0"/>
<stop offset="0.84" stop-color="#94539F"/>
<stop offset="0.9" stop-color="#A7549D"/>
<stop offset="0.95" stop-color="#C0559C"/>
<stop offset="1" stop-color="#DF579A"/>
</linearGradient>
<linearGradient id="paint1_linear_207_17" x1="4.21917" y1="25.3282" x2="20.797" y2="8.75035" gradientUnits="userSpaceOnUse">
<stop stop-color="#4EA0D8"/>
<stop offset="0.08" stop-color="#588FCC"/>
<stop offset="0.26" stop-color="#6C6DB4"/>
<stop offset="0.41" stop-color="#7859A6"/>
<stop offset="0.51" stop-color="#7D52A1"/>
<stop offset="0.68" stop-color="#7F52A0"/>
<stop offset="0.77" stop-color="#8752A0"/>
<stop offset="0.84" stop-color="#94539F"/>
<stop offset="0.9" stop-color="#A7549D"/>
<stop offset="0.95" stop-color="#C0559C"/>
<stop offset="1" stop-color="#DF579A"/>
</linearGradient>
<clipPath id="clip0_207_17">
<rect width="154" height="21.4475" fill="white" transform="translate(0 0.776367)"/>
</clipPath>
</defs>
</svg>
