<svg width="182" height="56" viewBox="0 0 182 56" fill="none" xmlns="http://www.w3.org/2000/svg">
<path d="M76.5892 12.3778H82.9918V33.74C82.9918 35.7146 82.548 37.43 81.6604 38.8861C80.7828 40.3421 79.5611 41.4641 77.9953 42.252C76.4296 43.0398 74.6095 43.4338 72.5351 43.4338C70.6901 43.4338 69.0146 43.1096 67.5087 42.4614C66.0128 41.8032 64.826 40.8059 63.9484 39.4695C63.0707 38.1231 62.6369 36.4327 62.6469 34.3982H69.0944C69.1144 35.206 69.2789 35.8991 69.5881 36.4776C69.9072 37.046 70.3411 37.4849 70.8896 37.794C71.4481 38.0932 72.1063 38.2428 72.8642 38.2428C73.6621 38.2428 74.3353 38.0733 74.8838 37.7342C75.4423 37.3851 75.8661 36.8765 76.1553 36.2083C76.4445 35.5401 76.5892 34.7173 76.5892 33.74V12.3778ZM98.6993 43.4637C96.3357 43.4637 94.3012 42.985 92.5958 42.0276C90.9004 41.0602 89.594 39.6939 88.6765 37.9287C87.7589 36.1535 87.3002 34.0541 87.3002 31.6307C87.3002 29.2671 87.7589 27.1927 88.6765 25.4075C89.594 23.6224 90.8855 22.2311 92.551 21.2338C94.2264 20.2365 96.1911 19.7379 98.445 19.7379C99.9609 19.7379 101.372 19.9822 102.679 20.4709C103.995 20.9496 105.142 21.6726 106.119 22.64C107.107 23.6074 107.875 24.8241 108.423 26.2901C108.972 27.7462 109.246 29.4516 109.246 31.4063V33.1566H89.8433V29.2072H103.247C103.247 28.2897 103.048 27.4769 102.649 26.7688C102.25 26.0608 101.696 25.5073 100.988 25.1083C100.29 24.6994 99.4772 24.495 98.5497 24.495C97.5824 24.495 96.7247 24.7194 95.9767 25.1682C95.2387 25.607 94.6603 26.2004 94.2414 26.9484C93.8225 27.6864 93.6081 28.5091 93.5981 29.4167V33.1715C93.5981 34.3084 93.8076 35.2908 94.2264 36.1186C94.6553 36.9463 95.2586 37.5846 96.0365 38.0334C96.8144 38.4822 97.7369 38.7065 98.804 38.7065C99.5121 38.7065 100.16 38.6068 100.749 38.4074C101.337 38.2079 101.841 37.9087 102.26 37.5098C102.679 37.1109 102.998 36.6222 103.217 36.0438L109.111 36.4327C108.812 37.8489 108.199 39.0855 107.271 40.1427C106.354 41.1898 105.167 42.0076 103.711 42.596C102.265 43.1745 100.594 43.4637 98.6993 43.4637ZM121.872 43.3889C120.126 43.3889 118.546 42.9401 117.129 42.0425C115.723 41.135 114.606 39.8036 113.779 38.0483C112.961 36.2831 112.552 34.119 112.552 31.5559C112.552 28.923 112.976 26.7339 113.823 24.9887C114.671 23.2334 115.798 21.922 117.204 21.0543C118.62 20.1767 120.171 19.7379 121.857 19.7379C123.143 19.7379 124.215 19.9573 125.073 20.3961C125.941 20.8249 126.639 21.3635 127.167 22.0117C127.706 22.65 128.115 23.2783 128.394 23.8966H128.588V12.3778H134.946V43.0149H128.663V39.3348H128.394C128.095 39.9731 127.671 40.6064 127.122 41.2347C126.584 41.853 125.881 42.3666 125.013 42.7755C124.155 43.1844 123.108 43.3889 121.872 43.3889ZM123.891 38.3176C124.918 38.3176 125.786 38.0384 126.494 37.4799C127.212 36.9114 127.761 36.1186 128.14 35.1013C128.529 34.0841 128.723 32.8923 128.723 31.526C128.723 30.1597 128.534 28.9729 128.155 27.9656C127.776 26.9583 127.227 26.1804 126.509 25.6319C125.791 25.0834 124.918 24.8091 123.891 24.8091C122.844 24.8091 121.961 25.0934 121.243 25.6618C120.525 26.2303 119.982 27.0182 119.613 28.0254C119.244 29.0327 119.059 30.1996 119.059 31.526C119.059 32.8624 119.244 34.0442 119.613 35.0714C119.992 36.0886 120.535 36.8865 121.243 37.4649C121.961 38.0334 122.844 38.3176 123.891 38.3176ZM145.586 43.0149H138.645L149.221 12.3778H157.569L168.13 43.0149H161.189L153.515 19.3788H153.275L145.586 43.0149ZM145.152 30.9725H161.548V36.0288H145.152V30.9725ZM178.295 12.3778V43.0149H171.818V12.3778H178.295Z" fill="white"/>
<path d="M51.3403 16.3533C51.3403 19.0141 50.2623 21.4263 48.5282 23.1733C46.7874 24.9204 44.3905 25.9954 41.7324 25.9954H8.25543C8.34247 23.1599 10.1837 20.3714 10.9135 19.3702C11.583 18.6311 11.9915 17.6501 11.9915 16.575C11.9915 14.277 10.1368 12.4158 7.84701 12.4158C5.55718 12.4158 3.70255 14.277 3.70255 16.575C3.70255 17.4418 3.96368 18.2414 4.41227 18.9066C4.506 19.0275 4.59974 19.1485 4.68678 19.2694C6.42758 21.6279 7.03686 23.9326 7.05695 25.9954H2.54425C1.13822 25.9954 0 24.8532 0 23.4421V9.55333C0 8.14228 1.13822 7 2.54425 7H42.0136C47.1624 7 51.3336 11.1861 51.3336 16.3533" fill="url(#paint0_linear_7_156)"/>
<path d="M51.3467 37.6467C51.3467 34.9859 50.2687 32.5736 48.5346 30.8266C46.7938 29.0796 44.3969 28.0045 41.7388 28.0045H8.2618C8.34884 30.8401 10.1901 33.6286 10.9199 34.6297C11.5894 35.3689 11.9978 36.3499 11.9978 37.425C11.9978 39.723 10.1432 41.5842 7.85338 41.5842C5.56356 41.5842 3.70893 39.723 3.70893 37.425C3.70893 36.5582 3.97005 35.7586 4.41864 35.0934C4.51238 34.9724 4.60612 34.8515 4.69316 34.7305C6.43396 32.3721 7.04324 30.0673 7.06333 28.0045H2.55063C1.1446 28.0045 0.00637817 29.1468 0.00637817 30.5578V44.4466C0.00637817 45.8577 1.1446 47 2.55063 47H42.02C47.1688 47 51.34 42.8138 51.34 37.6467" fill="url(#paint1_linear_7_156)"/>
<defs>
<linearGradient id="paint0_linear_7_156" x1="7.81353" y1="32.3385" x2="39.5821" y2="0.682821" gradientUnits="userSpaceOnUse">
<stop stop-color="#4EA0D8"/>
<stop offset="0.08" stop-color="#588FCC"/>
<stop offset="0.26" stop-color="#6C6DB4"/>
<stop offset="0.41" stop-color="#7859A6"/>
<stop offset="0.51" stop-color="#7D52A1"/>
<stop offset="0.68" stop-color="#7F52A0"/>
<stop offset="0.77" stop-color="#8752A0"/>
<stop offset="0.84" stop-color="#94539F"/>
<stop offset="0.9" stop-color="#A7549D"/>
<stop offset="0.95" stop-color="#C0559C"/>
<stop offset="1" stop-color="#DF579A"/>
</linearGradient>
<linearGradient id="paint1_linear_7_156" x1="7.86008" y1="53.3833" x2="39.5481" y2="21.808" gradientUnits="userSpaceOnUse">
<stop stop-color="#4EA0D8"/>
<stop offset="0.08" stop-color="#588FCC"/>
<stop offset="0.26" stop-color="#6C6DB4"/>
<stop offset="0.41" stop-color="#7859A6"/>
<stop offset="0.51" stop-color="#7D52A1"/>
<stop offset="0.68" stop-color="#7F52A0"/>
<stop offset="0.77" stop-color="#8752A0"/>
<stop offset="0.84" stop-color="#94539F"/>
<stop offset="0.9" stop-color="#A7549D"/>
<stop offset="0.95" stop-color="#C0559C"/>
<stop offset="1" stop-color="#DF579A"/>
</linearGradient>
</defs>
</svg>
