<svg width="30" height="30" viewBox="0 0 30 30" fill="none" xmlns="http://www.w3.org/2000/svg">
<path d="M15.0002 5.625C15.0002 5.21462 14.9194 4.80826 14.7623 4.42912C14.6053 4.04997 14.3751 3.70548 14.0849 3.41529C13.7948 3.12511 13.4503 2.89492 13.0711 2.73788C12.692 2.58083 12.2856 2.5 11.8752 2.5C11.1456 2.49922 10.4387 2.75376 9.87707 3.21951C9.31544 3.68525 8.93447 4.33284 8.80022 5.05C8.38817 5.1272 7.99585 5.28652 7.64664 5.51848C7.29743 5.75044 6.99846 6.05029 6.76754 6.40018C6.53661 6.75007 6.37844 7.14285 6.30245 7.55513C6.22646 7.96741 6.23421 8.39077 6.32522 8.8C5.76105 8.90016 5.23528 9.1535 4.80538 9.53233C4.37549 9.91116 4.05802 10.4009 3.8877 10.948C3.71738 11.4951 3.70076 12.0785 3.83965 12.6344C3.97854 13.1903 4.2676 13.6973 4.67522 14.1C3.98964 14.4165 3.41558 14.9326 3.02818 15.5808C2.64078 16.229 2.45809 16.979 2.50401 17.7327C2.54994 18.4865 2.82234 19.2088 3.28558 19.8051C3.74881 20.4015 4.38128 20.8441 5.10022 21.075C4.96296 21.5936 4.96149 22.1387 5.09596 22.658C5.23043 23.1773 5.49631 23.6533 5.86801 24.0401C6.23971 24.4268 6.70472 24.7114 7.21827 24.8664C7.73182 25.0214 8.27661 25.0416 8.80022 24.925C8.93916 25.6924 9.35998 26.3801 9.98004 26.853C10.6001 27.3259 11.3746 27.55 12.1514 27.481C12.9282 27.4121 13.6511 27.0553 14.1782 26.4806C14.7053 25.9059 14.9985 25.1548 15.0002 24.375M15.0002 5.625V24.375M15.0002 5.625C15.0002 4.7962 15.3295 4.00134 15.9155 3.41529C16.5016 2.82924 17.2964 2.5 18.1252 2.5C18.8548 2.49922 19.5617 2.75376 20.1234 3.21951C20.685 3.68525 21.066 4.33284 21.2002 5.05C21.6123 5.1272 22.0046 5.28652 22.3538 5.51848C22.703 5.75044 23.002 6.05029 23.2329 6.40018C23.4638 6.75007 23.622 7.14285 23.698 7.55513C23.774 7.96741 23.7662 8.39077 23.6752 8.8C24.2394 8.90016 24.7652 9.1535 25.1951 9.53233C25.625 9.91116 25.9424 10.4009 26.1127 10.948C26.2831 11.4951 26.2997 12.0785 26.1608 12.6344C26.0219 13.1903 25.7328 13.6973 25.3252 14.1C26.0108 14.4165 26.5849 14.9326 26.9723 15.5808C27.3597 16.229 27.5424 16.979 27.4964 17.7327C27.4505 18.4865 27.1781 19.2088 26.7149 19.8051C26.2516 20.4015 25.6192 20.8441 24.9002 21.075C25.0375 21.5936 25.039 22.1387 24.9045 22.658C24.77 23.1773 24.5041 23.6533 24.1324 24.0401C23.7607 24.4268 23.2957 24.7114 22.7822 24.8664C22.2686 25.0214 21.7238 25.0416 21.2002 24.925C21.0613 25.6924 20.6405 26.3801 20.0204 26.853C19.4004 27.3259 18.6259 27.55 17.8491 27.481C17.0723 27.4121 16.3493 27.0553 15.8222 26.4806C15.2951 25.9059 15.0019 25.1548 15.0002 24.375" stroke="#8b89ad" stroke-width="2" stroke-linecap="round" stroke-linejoin="round"/>
</svg>
