<svg width="30" height="30" viewBox="0 0 30 30" fill="none" xmlns="http://www.w3.org/2000/svg">
<g opacity="0.7">
<path d="M26.25 3.75L17.5 11.25L12.5 6.25L3.75 13.75M5.625 26.25C4.58946 26.25 3.75 25.4105 3.75 24.375V21.875C3.75 20.8395 4.58946 20 5.625 20C6.66054 20 7.5 20.8395 7.5 21.875V24.375C7.5 25.4105 6.66054 26.25 5.625 26.25ZM14.375 26.25C13.3395 26.25 12.5 25.4105 12.5 24.375V18.125C12.5 17.0895 13.3395 16.25 14.375 16.25C15.4105 16.25 16.25 17.0895 16.25 18.125V24.375C16.25 25.4105 15.4105 26.25 14.375 26.25ZM23.125 26.25C22.0895 26.25 21.25 25.4105 21.25 24.375V20.625C21.25 19.5895 22.0895 18.75 23.125 18.75C24.1605 18.75 25 19.5895 25 20.625V24.375C25 25.4105 24.1605 26.25 23.125 26.25Z" stroke="#8b89ad" stroke-width="3" stroke-linecap="round" stroke-linejoin="round"/>
</g>
</svg>
