<svg width="25" height="25" viewBox="0 0 25 25" fill="none" xmlns="http://www.w3.org/2000/svg">
<path d="M5.20553 20.0525C4.20267 19.0839 3.40276 17.9253 2.85246 16.6443C2.30217 15.3632 2.01251 13.9854 2.0004 12.5912C1.98828 11.1971 2.25395 9.81442 2.7819 8.52401C3.30985 7.2336 4.08951 6.06125 5.07538 5.07538C6.06125 4.08951 7.2336 3.30985 8.52401 2.7819C9.81442 2.25395 11.1971 1.98828 12.5912 2.0004C13.9854 2.01251 15.3632 2.30217 16.6443 2.85246C17.9253 3.40276 19.0839 4.20267 20.0525 5.20553C21.9652 7.18585 23.0235 9.83817 22.9996 12.5912C22.9757 15.3443 21.8714 17.9778 19.9246 19.9246C17.9778 21.8714 15.3443 22.9757 12.5912 22.9996C9.83817 23.0235 7.18585 21.9652 5.20553 20.0525ZM18.572 18.572C20.1482 16.9958 21.0337 14.8581 21.0337 12.629C21.0337 10.4 20.1482 8.26221 18.572 6.68603C16.9958 5.10984 14.8581 4.22435 12.629 4.22435C10.4 4.22435 8.26221 5.10984 6.68603 6.68603C5.10984 8.26221 4.22435 10.4 4.22435 12.629C4.22435 14.8581 5.10984 16.9958 6.68603 18.572C8.26221 20.1482 10.4 21.0337 12.629 21.0337C14.8581 21.0337 16.9958 20.1482 18.572 18.572ZM9.16403 11.8835L11.579 14.309L16.094 9.79403L17.564 11.285L11.579 17.249L7.69403 13.364L9.16403 11.873V11.8835Z" fill="#8b89ad"/>
</svg>
