<svg width="15" height="16" viewBox="0 0 15 16" fill="none" xmlns="http://www.w3.org/2000/svg">
<g clip-path="url(#clip0_1661_104805)">
<path d="M14.5285 5.38086C14.6222 5.63574 14.5431 5.91992 14.341 6.10156L13.0724 7.25586C13.1046 7.49902 13.1222 7.74805 13.1222 8C13.1222 8.25195 13.1046 8.50098 13.0724 8.74414L14.341 9.89844C14.5431 10.0801 14.6222 10.3643 14.5285 10.6191C14.3995 10.9678 14.2443 11.3018 14.0656 11.624L13.9279 11.8613C13.7345 12.1836 13.5177 12.4883 13.2804 12.7754C13.1076 12.9863 12.8204 13.0566 12.5626 12.9746L10.9308 12.4561C10.5382 12.7578 10.1046 13.0098 9.64173 13.2002L9.27552 14.873C9.21693 15.1396 9.01185 15.3506 8.74232 15.3945C8.33802 15.4619 7.922 15.4971 7.4972 15.4971C7.0724 15.4971 6.65638 15.4619 6.25208 15.3945C5.98255 15.3506 5.77747 15.1396 5.71888 14.873L5.35267 13.2002C4.88978 13.0098 4.45618 12.7578 4.06361 12.4561L2.4347 12.9775C2.17689 13.0596 1.88978 12.9863 1.71693 12.7783C1.47962 12.4912 1.26282 12.1865 1.06947 11.8643L0.93177 11.627C0.753059 11.3047 0.597786 10.9707 0.46888 10.6221C0.37513 10.3672 0.454231 10.083 0.65638 9.90137L1.92493 8.74707C1.89271 8.50098 1.87513 8.25195 1.87513 8C1.87513 7.74805 1.89271 7.49902 1.92493 7.25586L0.65638 6.10156C0.454231 5.91992 0.37513 5.63574 0.46888 5.38086C0.597786 5.03223 0.753059 4.69824 0.93177 4.37598L1.06947 4.13867C1.26282 3.81641 1.47962 3.51172 1.71693 3.22461C1.88978 3.01367 2.17689 2.94336 2.4347 3.02539L4.06654 3.54395C4.45911 3.24219 4.89271 2.99023 5.3556 2.7998L5.72181 1.12695C5.7804 0.860352 5.98548 0.649414 6.25501 0.605469C6.65931 0.535156 7.07533 0.5 7.50013 0.5C7.92493 0.5 8.34095 0.535156 8.74525 0.602539C9.01478 0.646484 9.21986 0.857422 9.27845 1.12402L9.64466 2.79688C10.1076 2.9873 10.5411 3.23926 10.9337 3.54102L12.5656 3.02246C12.8234 2.94043 13.1105 3.01367 13.2833 3.22168C13.5206 3.50879 13.7374 3.81348 13.9308 4.13574L14.0685 4.37305C14.2472 4.69531 14.4025 5.0293 14.5314 5.37793L14.5285 5.38086ZM7.50013 10.3438C8.12173 10.3438 8.71787 10.0968 9.15741 9.65728C9.59695 9.21774 9.84388 8.6216 9.84388 8C9.84388 7.3784 9.59695 6.78226 9.15741 6.34272C8.71787 5.90318 8.12173 5.65625 7.50013 5.65625C6.87853 5.65625 6.28239 5.90318 5.84285 6.34272C5.40331 6.78226 5.15638 7.3784 5.15638 8C5.15638 8.6216 5.40331 9.21774 5.84285 9.65728C6.28239 10.0968 6.87853 10.3438 7.50013 10.3438Z" fill="#8b89ad"/>
</g>
<defs>
<clipPath id="clip0_1661_104805">
<rect width="15" height="15" fill="white" transform="translate(0 0.5)"/>
</clipPath>
</defs>
</svg>
