<svg width="15" height="15" viewBox="0 0 15 15" fill="none" xmlns="http://www.w3.org/2000/svg">
<path d="M7.49979 1.875C6.66251 1.87514 5.84421 2.12442 5.14905 2.5911C4.45389 3.05778 3.91332 3.72076 3.59615 4.49564C3.27897 5.27053 3.19955 6.12226 3.36798 6.94242C3.53642 7.76259 3.94509 8.51408 4.54198 9.10125C4.62092 9.17453 4.67913 9.26734 4.71073 9.37031L4.96854 10.3125H10.031L10.2879 9.37031C10.3198 9.26726 10.3784 9.17445 10.4576 9.10125C11.0545 8.51408 11.4632 7.76259 11.6316 6.94242C11.8 6.12226 11.7206 5.27053 11.4034 4.49564C11.0863 3.72076 10.5457 3.05778 9.85053 2.5911C9.15537 2.12442 8.33707 1.87514 7.49979 1.875ZM9.7751 11.25H5.22448L5.45323 12.0891C5.53445 12.3866 5.71123 12.6492 5.95636 12.8364C6.20149 13.0236 6.50136 13.125 6.80979 13.125H8.18979C8.49822 13.125 8.79809 13.0236 9.04322 12.8364C9.28834 12.6492 9.46513 12.3866 9.54635 12.0891L9.7751 11.25Z" fill="#8b89ad"/>
</svg>
