<svg width="26" height="25" viewBox="0 0 26 25" fill="none" xmlns="http://www.w3.org/2000/svg">
<path d="M11.9583 6.25C12.2346 6.25 12.4996 6.35975 12.6949 6.5551C12.8903 6.75045 13 7.0154 13 7.29167C13 7.56793 12.8903 7.83289 12.6949 8.02824C12.4996 8.22359 12.2346 8.33333 11.9583 8.33333H5.70833V19.7917H17.1667V13.5417C17.1667 13.2654 17.2764 13.0004 17.4718 12.8051C17.6671 12.6097 17.9321 12.5 18.2083 12.5C18.4846 12.5 18.7496 12.6097 18.9449 12.8051C19.1403 13.0004 19.25 13.2654 19.25 13.5417V19.7917C19.25 20.3442 19.0305 20.8741 18.6398 21.2648C18.2491 21.6555 17.7192 21.875 17.1667 21.875H5.70833C5.1558 21.875 4.62589 21.6555 4.23519 21.2648C3.84449 20.8741 3.625 20.3442 3.625 19.7917V8.33333C3.625 7.7808 3.84449 7.25089 4.23519 6.86019C4.62589 6.46949 5.1558 6.25 5.70833 6.25H11.9583ZM21.3333 3.125C21.6096 3.125 21.8746 3.23475 22.0699 3.4301C22.2653 3.62545 22.375 3.8904 22.375 4.16667V9.375C22.375 9.65127 22.2653 9.91622 22.0699 10.1116C21.8746 10.3069 21.6096 10.4167 21.3333 10.4167C21.0571 10.4167 20.7921 10.3069 20.5968 10.1116C20.4014 9.91622 20.2917 9.65127 20.2917 9.375V6.68125L11.6531 15.3198C11.4567 15.5095 11.1935 15.6145 10.9204 15.6122C10.6473 15.6098 10.386 15.5002 10.1929 15.3071C9.99976 15.114 9.89021 14.8527 9.88784 14.5796C9.88547 14.3065 9.99046 14.0433 10.1802 13.8469L18.8187 5.20833H16.125C15.8487 5.20833 15.5838 5.09859 15.3884 4.90324C15.1931 4.70789 15.0833 4.44293 15.0833 4.16667C15.0833 3.8904 15.1931 3.62545 15.3884 3.4301C15.5838 3.23475 15.8487 3.125 16.125 3.125H21.3333Z" fill="#8b89ad"/>
</svg>
