<svg width="26" height="25" viewBox="0 0 26 25" fill="none" xmlns="http://www.w3.org/2000/svg">
<path d="M17.0682 15.3636C17.0682 14.3089 14.0766 13.4545 10.3864 13.4545M17.0682 15.3636C17.0682 16.4184 14.0766 17.2727 10.3864 17.2727C6.69609 17.2727 3.70455 16.4184 3.70455 15.3636M17.0682 15.3636V20.0762C17.0682 21.1635 14.0766 22.0455 10.3864 22.0455C6.69609 22.0455 3.70455 21.1644 3.70455 20.0762V15.3636M17.0682 15.3636C20.7184 15.3636 23.75 14.4215 23.75 13.4545V3.90909M10.3864 13.4545C6.69609 13.4545 3.70455 14.3089 3.70455 15.3636M10.3864 13.4545C6.16918 13.4545 2.75 12.5124 2.75 11.5455V6.77273M10.3864 4.86364C6.16918 4.86364 2.75 5.71795 2.75 6.77273M2.75 6.77273C2.75 7.8275 6.16918 8.68182 10.3864 8.68182C10.3864 9.64877 13.4915 10.5909 17.1417 10.5909C20.7909 10.5909 23.75 9.64877 23.75 8.68182M23.75 3.90909C23.75 2.85432 20.7909 2 17.1417 2C13.4915 2 10.5334 2.85432 10.5334 3.90909M23.75 3.90909C23.75 4.96386 20.7909 5.81818 17.1417 5.81818C13.4925 5.81818 10.5334 4.96386 10.5334 3.90909M10.5334 3.90909V13.613" stroke="#8b89ad" stroke-width="1.5"/>
</svg>
