<svg width="31" height="30" viewBox="0 0 31 30" fill="none" xmlns="http://www.w3.org/2000/svg">
<g opacity="0.7">
<path d="M25.6454 20.3906C24.9001 20.3943 24.2035 20.6053 23.612 20.9681L23.6288 20.9587L21.1032 18.6628C21.782 17.6268 22.1851 16.3575 22.1851 14.9943C22.1851 13.5206 21.7135 12.1565 20.912 11.0456L20.926 11.0653L23.7966 8.19465C24.331 8.4909 24.9676 8.66621 25.6445 8.6709H25.6463C27.8466 8.6709 29.6307 6.88684 29.6307 4.68652C29.6307 2.48621 27.8466 0.702148 25.6463 0.702148C23.446 0.702148 21.662 2.48621 21.662 4.68652C21.6666 5.36527 21.8429 6.00184 22.1485 6.55684L22.1382 6.53621L19.2676 9.40684C18.1923 8.61934 16.8423 8.14683 15.3826 8.14683C14.5688 8.14683 13.7898 8.29402 13.0698 8.56215L13.1157 8.54715L12.512 7.45027C13.1926 6.74059 13.6116 5.77496 13.6116 4.71184C13.6116 2.52559 11.8388 0.752773 9.65258 0.752773C7.46633 0.752773 5.69352 2.52559 5.69352 4.71184C5.69352 6.89809 7.46633 8.6709 9.65258 8.6709C9.93945 8.6709 10.2198 8.63996 10.4898 8.58184L10.4635 8.58652L11.0654 9.67965C9.4857 10.9125 8.47977 12.8156 8.47977 14.955C8.47977 15.5221 8.55102 16.0734 8.68414 16.5993L8.67383 16.5534L8.04852 16.8187C7.31727 15.9712 6.24195 15.4368 5.04195 15.4368C2.85383 15.4368 1.08008 17.2106 1.08008 19.3987C1.08008 21.5868 2.85383 23.3606 5.04195 23.3606C7.23008 23.3606 9.00383 21.5868 9.00383 19.3987C9.00383 19.3912 9.00383 19.3828 9.00383 19.3753C8.99633 19.2262 8.98227 19.0884 8.9607 18.9534L8.96352 18.9759L9.58883 18.7106C10.8104 20.61 12.9141 21.8503 15.3076 21.8503C16.9041 21.8503 18.3713 21.2981 19.5291 20.3746L19.5151 20.385L22.0482 22.6865C21.8063 23.1796 21.6638 23.759 21.6601 24.3712C21.6601 26.5715 23.4441 28.3565 25.6445 28.3565C27.8448 28.3565 29.6288 26.5725 29.6288 24.3721C29.6288 22.1718 27.8448 20.3878 25.6445 20.3878L25.6454 20.3906ZM8.01102 4.68746C8.01102 3.78184 8.74602 3.04684 9.65164 3.04684C10.5573 3.04684 11.2923 3.78184 11.2923 4.68746C11.2923 5.59309 10.5573 6.32809 9.65164 6.32809C8.74602 6.32715 8.01195 5.59309 8.01102 4.68746ZM5.02039 21.0187C4.11477 21.0178 3.38164 20.2846 3.38164 19.379C3.38164 18.4734 4.1157 17.7393 5.02133 17.7393C5.92695 17.7393 6.66008 18.4725 6.66102 19.3781C6.66008 20.2837 5.92602 21.0178 5.02039 21.0187ZM25.6454 3.04684C26.551 3.04684 27.286 3.78184 27.286 4.68746C27.286 5.59309 26.551 6.32809 25.6454 6.32809C24.7398 6.32809 24.0048 5.59309 24.0048 4.68746C24.0057 3.78184 24.7398 3.04777 25.6454 3.04684ZM10.8235 15C10.8235 14.999 10.8235 14.9981 10.8235 14.9971C10.8235 12.5081 12.841 10.4906 15.3301 10.4906C16.5751 10.4906 17.702 10.9959 18.5176 11.8115L18.5185 11.8125L18.5195 11.8134C19.3351 12.629 19.8385 13.7559 19.8385 15C19.8385 17.49 17.8201 19.5075 15.331 19.5075C12.842 19.5075 10.8235 17.489 10.8235 15ZM25.6454 26.0156C24.7398 26.0156 24.0048 25.2806 24.0048 24.375C24.0048 23.4693 24.7398 22.7343 25.6454 22.7343C26.551 22.7343 27.286 23.4693 27.286 24.375C27.2851 25.2806 26.551 26.0146 25.6454 26.0156Z" fill="#8b89ad"/>
</g>
</svg>
