<svg width="15" height="16" viewBox="0 0 15 16" fill="none" xmlns="http://www.w3.org/2000/svg">
<path d="M3.89629 13.3907C3.71641 13.3903 3.53972 13.3432 3.38359 13.2539C3.03203 13.0546 2.81348 12.6679 2.81348 12.2481V3.752C2.81348 3.33101 3.03203 2.94546 3.38359 2.74624C3.54344 2.65438 3.72502 2.60714 3.90937 2.60946C4.09372 2.61178 4.27406 2.66357 4.43154 2.75943L11.6928 7.10591C11.8441 7.2008 11.9689 7.33257 12.0553 7.48886C12.1418 7.64515 12.1872 7.82085 12.1872 7.99947C12.1872 8.17809 12.1418 8.35378 12.0553 8.51007C11.9689 8.66636 11.8441 8.79813 11.6928 8.89302L4.43037 13.2407C4.26921 13.3381 4.08461 13.39 3.89629 13.3907Z" fill="#8b89ad"/>
</svg>
