<svg width="26" height="25" viewBox="0 0 26 25" fill="none" xmlns="http://www.w3.org/2000/svg">
<path d="M2.5 12.25C2.5 9.53153 3.57991 6.9244 5.50216 5.00216C7.4244 3.07991 10.0315 2 12.75 2C15.4685 2 18.0756 3.07991 19.9978 5.00216C21.9201 6.9244 23 9.53153 23 12.25C23 14.9685 21.9201 17.5756 19.9978 19.4978C18.0756 21.4201 15.4685 22.5 12.75 22.5C10.0315 22.5 7.4244 21.4201 5.50216 19.4978C3.57991 17.5756 2.5 14.9685 2.5 12.25ZM12.75 3.92188C10.5412 3.92188 8.42295 4.7993 6.86113 6.36113C5.2993 7.92295 4.42188 10.0412 4.42188 12.25C4.42188 14.4588 5.2993 16.577 6.86113 18.1389C8.42295 19.7007 10.5412 20.5781 12.75 20.5781C14.9588 20.5781 17.077 19.7007 18.6389 18.1389C20.2007 16.577 21.0781 14.4588 21.0781 12.25C21.0781 10.0412 20.2007 7.92295 18.6389 6.36113C17.077 4.7993 14.9588 3.92188 12.75 3.92188ZM11.3663 9.79641C11.2524 10.0244 11.0539 10.1979 10.8122 10.2786C10.5705 10.3593 10.3066 10.3407 10.0786 10.2269C9.85058 10.1131 9.67713 9.91332 9.5964 9.6716C9.51566 9.42987 9.53426 9.16598 9.64809 8.93797C9.86462 8.50362 10.2067 8.03981 10.7359 7.68619C11.2702 7.33 11.9415 7.125 12.75 7.125C13.503 7.11985 14.2379 7.35554 14.8474 7.79766C15.4919 8.28069 15.9531 9.03406 15.9531 10.0078C15.9531 10.5818 15.8058 11.0712 15.5316 11.4812C15.2689 11.8746 14.9294 12.1385 14.645 12.3294C14.5053 12.4217 14.3631 12.5063 14.2439 12.5793L14.2362 12.5844C14.1236 12.65 14.0125 12.7184 13.9031 12.7894C13.7659 12.87 13.6458 12.9766 13.5495 13.1033C13.4068 13.3123 13.1875 13.4566 12.9391 13.5048C12.6908 13.5531 12.4334 13.5014 12.2228 13.3611C12.0123 13.2207 11.8656 13.003 11.8146 12.7552C11.7636 12.5073 11.8125 12.2494 11.9505 12.0373C12.1862 11.6991 12.4886 11.4108 12.8371 11.1904C12.9691 11.1046 13.1023 11.0213 13.2382 10.9406L13.2471 10.9354C13.3752 10.8573 13.4803 10.7945 13.5777 10.7292C13.715 10.6483 13.8355 10.5417 13.9326 10.4152C13.98 10.3461 14.0312 10.2346 14.0312 10.0078C14.0361 9.87655 14.0079 9.74616 13.9493 9.62863C13.8906 9.5111 13.8034 9.41019 13.6956 9.33516C13.4179 9.14333 13.0875 9.04259 12.75 9.04688C12.2772 9.04688 11.9877 9.16219 11.8019 9.28647C11.6144 9.41521 11.4641 9.5911 11.3663 9.79641ZM14.0312 16.0938C14.0312 16.4336 13.8963 16.7594 13.656 16.9997C13.4157 17.24 13.0898 17.375 12.75 17.375C12.4102 17.375 12.0843 17.24 11.844 16.9997C11.6037 16.7594 11.4688 16.4336 11.4688 16.0938C11.4688 15.7539 11.6037 15.4281 11.844 15.1878C12.0843 14.9475 12.4102 14.8125 12.75 14.8125C13.0898 14.8125 13.4157 14.9475 13.656 15.1878C13.8963 15.4281 14.0312 15.7539 14.0312 16.0938Z" fill="#8b89ad"/>
</svg>
