<svg width="15" height="16" viewBox="0 0 15 16" fill="none" xmlns="http://www.w3.org/2000/svg">
<path d="M7.13125 2.29376C7.2379 2.21461 7.36719 2.17188 7.5 2.17188C7.63281 2.17188 7.7621 2.21461 7.86875 2.29376C8.63125 2.84376 10.3125 4.53751 10.3125 8.62501C10.3125 9.97501 9.825 11.6 9.4625 12.5938C9.375 12.8375 9.14375 13 8.88125 13H6.125C5.8625 13 5.625 12.8375 5.5375 12.5938C5.175 11.6 4.6875 9.97501 4.6875 8.62501C4.6875 4.53751 6.36875 2.84376 7.13125 2.29376ZM8.75 7.37501C8.75 6.68751 8.1875 6.12501 7.5 6.12501C6.8125 6.12501 6.25 6.68751 6.25 7.37501C6.25 8.06251 6.8125 8.62501 7.5 8.62501C8.1875 8.62501 8.75 8.06251 8.75 7.37501ZM4.80625 13.325C4.50625 12.5563 3.85625 10.7188 3.7625 9.03126L3.05625 9.50001C2.70625 9.73751 2.5 10.125 2.5 10.5438V13.325C2.5 13.7688 2.94375 14.0688 3.35625 13.9063L4.80625 13.325ZM12.5 13.325V10.5438C12.5 10.125 12.2938 9.73751 11.9438 9.50626L11.2375 9.03751C11.1437 10.7188 10.4875 12.5625 10.1937 13.3313L11.6437 13.9125C12.0562 14.0688 12.5 13.7688 12.5 13.325Z" fill="#8b89ad"/>
</svg>
