<svg width="30" height="30" viewBox="0 0 30 30" fill="none" xmlns="http://www.w3.org/2000/svg">
<g opacity="0.7" clip-path="url(#clip0_8011_3603)">
<path d="M10.5998 15.8334C10.4414 15.6956 10.2368 15.6228 10.0269 15.6293C9.81711 15.6359 9.61749 15.7215 9.468 15.8689C9.3185 16.0162 9.23015 16.2146 9.22059 16.4243C9.21103 16.6341 9.28098 16.8396 9.41645 17L13.8831 21.4667L22.2581 13.0917C22.3946 12.9323 22.466 12.7272 22.4579 12.5175C22.4498 12.3077 22.3628 12.1088 22.2144 11.9604C22.066 11.812 21.8671 11.725 21.6573 11.7169C21.4476 11.7088 21.2425 11.7802 21.0831 11.9167L13.8831 19.1167L10.5998 15.8334Z" fill="#8b89ad"/>
<path d="M19.2747 7.50003H9.99967V6.10836C9.99967 6.07225 10.0068 6.03649 10.0206 6.00312C10.0344 5.96976 10.0547 5.93944 10.0802 5.9139C10.1058 5.88837 10.1361 5.86811 10.1694 5.85429C10.2028 5.84047 10.2386 5.83336 10.2747 5.83336H13.333V5.00003C13.333 4.558 13.5086 4.13407 13.8212 3.82151C14.1337 3.50895 14.5576 3.33336 14.9997 3.33336C15.4417 3.33336 15.8656 3.50895 16.1782 3.82151C16.4907 4.13407 16.6663 4.558 16.6663 5.00003V5.83336H18.808C18.77 5.55719 18.7506 5.27879 18.7497 5.00003C18.7506 4.72126 18.77 4.44286 18.808 4.16669H18.2247C18.0411 3.44968 17.6241 2.81416 17.0394 2.36033C16.4547 1.90649 15.7356 1.66016 14.9955 1.66016C14.2554 1.66016 13.5363 1.90649 12.9516 2.36033C12.3669 2.81416 11.9499 3.44968 11.7663 4.16669H10.2747C9.76039 4.16889 9.26779 4.37416 8.90413 4.73782C8.54047 5.10148 8.3352 5.59407 8.33301 6.10836V9.16669H20.3497C19.9049 8.67189 19.542 8.10926 19.2747 7.50003Z" fill="#8b89ad"/>
<path d="M24.6923 11.545C24.4221 11.5441 24.1523 11.5248 23.8846 11.4871V26.8458H6.11538V6.16905H7.73077V4.51491H6.11538C5.91758 4.48561 5.71596 4.4996 5.52383 4.55596C5.3317 4.61231 5.15342 4.70975 5.00077 4.84184C4.84811 4.97393 4.72454 5.13767 4.63823 5.32225C4.55191 5.50683 4.50479 5.70806 4.5 5.91266V27.1022C4.50106 27.2869 4.53762 27.4695 4.6076 27.6397C4.67759 27.8098 4.77962 27.9642 4.90787 28.094C5.03612 28.2238 5.18808 28.3265 5.35508 28.3961C5.52208 28.4658 5.70084 28.5011 5.88115 28.5H24.1188C24.2992 28.5011 24.4779 28.4658 24.6449 28.3961C24.8119 28.3265 24.9639 28.2238 25.0921 28.094C25.2204 27.9642 25.3224 27.8098 25.3924 27.6397C25.4624 27.4695 25.4989 27.2869 25.5 27.1022V11.4871C25.2323 11.5248 24.9625 11.5441 24.6923 11.545Z" fill="#8b89ad"/>
<path d="M24.9997 9.16658C27.3009 9.16658 29.1663 7.30111 29.1663 4.99992C29.1663 2.69873 27.3009 0.833252 24.9997 0.833252C22.6985 0.833252 20.833 2.69873 20.833 4.99992C20.833 7.30111 22.6985 9.16658 24.9997 9.16658Z" fill="#8b89ad"/>
</g>
<defs>
<clipPath id="clip0_8011_3603">
<rect width="30" height="30" fill="white"/>
</clipPath>
</defs>
</svg>
