<svg width="30" height="30" viewBox="0 0 30 30" fill="none" xmlns="http://www.w3.org/2000/svg">
<g opacity="0.7">
<path d="M22.9462 2.01779C23.2126 1.57382 23.7885 1.42986 24.2325 1.69624L23.7501 2.50014C24.2325 1.69624 24.2321 1.69598 24.2325 1.69624L24.2342 1.69728L24.2362 1.69847L24.2409 1.70129L24.2529 1.70868C24.262 1.71441 24.2736 1.72171 24.2874 1.73061C24.3149 1.74839 24.3512 1.77261 24.3952 1.80339C24.4831 1.86492 24.6019 1.95306 24.741 2.06899C25.0186 2.30036 25.3816 2.64597 25.7432 3.11603C26.4719 4.06321 27.1876 5.50932 27.1876 7.50014C27.1876 9.49095 26.4719 10.9371 25.7432 11.8842C25.3816 12.3543 25.0186 12.6999 24.741 12.9313C24.6019 13.0473 24.4831 13.1354 24.3952 13.1969C24.3512 13.2276 24.3149 13.2519 24.2874 13.2696C24.2736 13.2786 24.262 13.2859 24.2529 13.2916L24.2409 13.299L24.2362 13.3018L24.2342 13.303C24.2339 13.3033 24.2325 13.304 23.7501 12.5001L24.2325 13.304C23.7885 13.5704 23.2126 13.4265 22.9462 12.9825C22.681 12.5404 22.8226 11.9675 23.2622 11.6996L23.2691 11.6952C23.2782 11.6893 23.2956 11.6779 23.32 11.6608C23.3687 11.6266 23.4454 11.5702 23.5406 11.4909C23.7317 11.3316 23.9936 11.0835 24.2571 10.741C24.7785 10.0632 25.3126 9.00932 25.3126 7.50014C25.3126 5.99095 24.7785 4.93707 24.2571 4.25924C23.9936 3.91681 23.7317 3.66867 23.5406 3.50941C23.4454 3.43004 23.3687 3.37363 23.32 3.33946C23.2956 3.32239 23.2782 3.31097 23.2691 3.30508L23.2622 3.30067C22.8226 3.03281 22.681 2.45992 22.9462 2.01779Z" fill="#8b89ad"/>
<path fill-rule="evenodd" clip-rule="evenodd" d="M12.5 1.5625C9.22081 1.5625 6.5625 4.2208 6.5625 7.5C6.5625 10.7792 9.22081 13.4375 12.5 13.4375C15.7792 13.4375 18.4375 10.7792 18.4375 7.5C18.4375 4.2208 15.7792 1.5625 12.5 1.5625ZM8.4375 7.5C8.4375 5.25634 10.2563 3.4375 12.5 3.4375C14.7437 3.4375 16.5625 5.25634 16.5625 7.5C16.5625 9.74365 14.7437 11.5625 12.5 11.5625C10.2563 11.5625 8.4375 9.74365 8.4375 7.5Z" fill="#8b89ad"/>
<path fill-rule="evenodd" clip-rule="evenodd" d="M12.5001 15.3125C9.60822 15.3125 6.94382 15.9699 4.96947 17.0804C3.02452 18.1745 1.56266 19.8326 1.56266 21.875L1.56258 22.0025C1.56117 23.4547 1.5594 25.2775 3.15819 26.5794C3.94502 27.2201 5.04576 27.6759 6.53292 27.9769C8.02425 28.2788 9.96795 28.4375 12.5001 28.4375C15.0324 28.4375 16.9761 28.2788 18.4674 27.9769C19.9546 27.6759 21.0554 27.2201 21.8421 26.5794C23.4409 25.2775 23.4391 23.4547 23.4377 22.0025L23.4376 21.875C23.4376 19.8326 21.9759 18.1745 20.0309 17.0804C18.0565 15.9699 15.3921 15.3125 12.5001 15.3125ZM3.43766 21.875C3.43766 20.8109 4.21438 19.6565 5.88872 18.7146C7.53366 17.7894 9.86926 17.1875 12.5001 17.1875C15.1311 17.1875 17.4666 17.7894 19.1116 18.7146C20.786 19.6565 21.5626 20.8109 21.5626 21.875C21.5626 23.5098 21.5122 24.43 20.6581 25.1255C20.195 25.5028 19.4207 25.8709 18.0954 26.1391C16.7742 26.4065 14.968 26.5625 12.5001 26.5625C10.0324 26.5625 8.22609 26.4065 6.90491 26.1391C5.57957 25.8709 4.80531 25.5028 4.34215 25.1255C3.48806 24.43 3.43766 23.5098 3.43766 21.875Z" fill="#8b89ad"/>
<path d="M21.7325 4.19624C21.2885 3.92986 20.7126 4.07382 20.4463 4.51779L20.7565 5.79717L20.7663 5.80382C20.7809 5.81407 20.8086 5.83433 20.8453 5.86488C20.9193 5.92648 21.0249 6.02618 21.1321 6.16549C21.341 6.43707 21.5626 6.86596 21.5626 7.50014C21.5626 8.13432 21.341 8.56321 21.1321 8.83478C21.0249 8.97409 20.9193 9.07379 20.8453 9.1354C20.8086 9.16594 20.7809 9.18622 20.7663 9.19647L20.7565 9.2031C20.3214 9.47243 20.1821 10.0423 20.4463 10.4825C20.7126 10.9265 21.2885 11.0704 21.7325 10.804L21.2501 10.0001C21.7325 10.804 21.7321 10.8043 21.7325 10.804L21.7341 10.803L21.736 10.8019L21.7399 10.7995L21.7493 10.7938L21.7733 10.7785C21.7916 10.7667 21.8146 10.7514 21.8415 10.7325C21.8953 10.6949 21.9651 10.6429 22.0456 10.5758C22.2061 10.4421 22.4129 10.2449 22.6183 9.97799C23.0344 9.43707 23.4376 8.61596 23.4376 7.50014C23.4376 6.38432 23.0344 5.56321 22.6183 5.02228C22.4129 4.75534 22.2061 4.55817 22.0456 4.42447C21.9651 4.35734 21.8953 4.30536 21.8415 4.26776C21.8146 4.24893 21.7916 4.23362 21.7733 4.22176L21.7493 4.20648L21.7399 4.20074L21.736 4.19833L21.7341 4.19724C21.7338 4.19699 21.7325 4.19624 21.2501 5.00014L21.7325 4.19624Z" fill="#8b89ad"/>
</g>
</svg>
