<svg width="28" height="26" viewBox="0 0 28 26" fill="none" xmlns="http://www.w3.org/2000/svg">
<path d="M19 24.25V21.75C19 20.4239 18.4732 19.1521 17.5355 18.2145C16.5979 17.2768 15.3261 16.75 14 16.75H6.5C5.17392 16.75 3.90215 17.2768 2.96447 18.2145C2.02678 19.1521 1.5 20.4239 1.5 21.75V24.25" stroke="#8b89ad" stroke-width="2" stroke-linecap="round" stroke-linejoin="round"/>
<path d="M10.25 11.75C13.0114 11.75 15.25 9.51142 15.25 6.75C15.25 3.98858 13.0114 1.75 10.25 1.75C7.48858 1.75 5.25 3.98858 5.25 6.75C5.25 9.51142 7.48858 11.75 10.25 11.75Z" stroke="#8b89ad" stroke-width="2" stroke-linecap="round" stroke-linejoin="round"/>
<path d="M26.5 24.2501V21.7501C26.4992 20.6423 26.1304 19.5661 25.4517 18.6905C24.773 17.8149 23.8227 17.1896 22.75 16.9126M19 1.9126C20.0755 2.18797 21.0288 2.81347 21.7095 3.69049C22.3903 4.5675 22.7598 5.64613 22.7598 6.75635C22.7598 7.86656 22.3903 8.9452 21.7095 9.82221C21.0288 10.6992 20.0755 11.3247 19 11.6001" stroke="#8b89ad" stroke-width="2" stroke-linecap="round" stroke-linejoin="round"/>
</svg>
