<svg width="25" height="25" viewBox="0 0 25 25" fill="none" xmlns="http://www.w3.org/2000/svg">
<path d="M12.7601 20.8334H4.16634C3.59343 20.8334 3.1028 20.6292 2.69447 20.2209C2.28613 19.8126 2.08232 19.3223 2.08301 18.7501V17.9167C2.08301 17.3438 2.23058 16.8056 2.52572 16.3022C2.82086 15.7987 3.22884 15.4167 3.74968 15.1563C4.63509 14.7049 5.63336 14.323 6.74447 14.0105C7.85558 13.698 9.07954 13.5417 10.4163 13.5417C10.9372 13.5417 11.4452 13.5678 11.9403 13.6199C12.4354 13.672 12.917 13.7501 13.3851 13.8542L11.5622 15.6772C11.3712 15.6424 11.1847 15.6251 11.0028 15.6251H10.4163C9.1837 15.6251 8.07676 15.7727 7.09551 16.0678C6.11426 16.3629 5.31148 16.6841 4.68718 17.0313C4.53093 17.1181 4.40488 17.2397 4.30905 17.3959C4.21322 17.5522 4.16565 17.7258 4.16634 17.9167V18.7501H10.6768L12.7601 20.8334ZM16.1976 18.3334L20.7288 13.8022C20.9198 13.6112 21.1629 13.5157 21.458 13.5157C21.7531 13.5157 21.9962 13.6112 22.1872 13.8022C22.3781 13.9931 22.4736 14.2362 22.4736 14.5313C22.4736 14.8265 22.3781 15.0695 22.1872 15.2605L16.9268 20.5209C16.7184 20.7292 16.4754 20.8334 16.1976 20.8334C15.9198 20.8334 15.6768 20.7292 15.4684 20.5209L13.333 18.3855C13.142 18.1945 13.0466 17.9515 13.0466 17.6563C13.0466 17.3612 13.142 17.1181 13.333 16.9272C13.524 16.7362 13.767 16.6407 14.0622 16.6407C14.3573 16.6407 14.6004 16.7362 14.7913 16.9272L16.1976 18.3334ZM10.4163 12.5001C9.27051 12.5001 8.28961 12.0921 7.47363 11.2761C6.65766 10.4602 6.24968 9.47925 6.24968 8.33341C6.24968 7.18758 6.65766 6.20668 7.47363 5.39071C8.28961 4.57473 9.27051 4.16675 10.4163 4.16675C11.5622 4.16675 12.5431 4.57473 13.3591 5.39071C14.175 6.20668 14.583 7.18758 14.583 8.33341C14.583 9.47925 14.175 10.4602 13.3591 11.2761C12.5431 12.0921 11.5622 12.5001 10.4163 12.5001ZM10.4163 10.4167C10.9893 10.4167 11.4799 10.2126 11.8882 9.80425C12.2966 9.39591 12.5004 8.90564 12.4997 8.33341C12.4997 7.7605 12.2955 7.26987 11.8872 6.86154C11.4788 6.45321 10.9886 6.24939 10.4163 6.25008C9.84343 6.25008 9.3528 6.45425 8.94447 6.86258C8.53613 7.27091 8.33231 7.76119 8.33301 8.33341C8.33301 8.90633 8.53718 9.39696 8.94551 9.80529C9.35384 10.2136 9.84412 10.4174 10.4163 10.4167Z" fill="#8b89ad"/>
</svg>
