<svg width="25" height="26" viewBox="0 0 25 26" fill="none" xmlns="http://www.w3.org/2000/svg">
<g clip-path="url(#clip0_208_18)">
<path d="M0 3.17857C0 2.46817 0.282206 1.78687 0.784535 1.28453C1.28687 0.782206 1.96817 0.5 2.67857 0.5H8.03571C8.74612 0.5 9.42742 0.782206 9.92975 1.28453C10.4321 1.78687 10.7143 2.46817 10.7143 3.17857V8.53571C10.7143 9.24612 10.4321 9.92742 9.92975 10.4298C9.42742 10.9321 8.74612 11.2143 8.03571 11.2143H2.67857C1.96817 11.2143 1.28687 10.9321 0.784535 10.4298C0.282206 9.92742 0 9.24612 0 8.53571V3.17857ZM14.2857 3.17857C14.2857 2.46817 14.5679 1.78687 15.0702 1.28453C15.5726 0.782206 16.2539 0.5 16.9643 0.5H22.3214C23.0318 0.5 23.7131 0.782206 24.2155 1.28453C24.7178 1.78687 25 2.46817 25 3.17857V8.53571C25 9.24612 24.7178 9.92742 24.2155 10.4298C23.7131 10.9321 23.0318 11.2143 22.3214 11.2143H16.9643C16.2539 11.2143 15.5726 10.9321 15.0702 10.4298C14.5679 9.92742 14.2857 9.24612 14.2857 8.53571V3.17857ZM0 17.4643C0 16.7539 0.282206 16.0726 0.784535 15.5702C1.28687 15.0679 1.96817 14.7857 2.67857 14.7857H8.03571C8.74612 14.7857 9.42742 15.0679 9.92975 15.5702C10.4321 16.0726 10.7143 16.7539 10.7143 17.4643V22.8214C10.7143 23.5318 10.4321 24.2131 9.92975 24.7155C9.42742 25.2178 8.74612 25.5 8.03571 25.5H2.67857C1.96817 25.5 1.28687 25.2178 0.784535 24.7155C0.282206 24.2131 0 23.5318 0 22.8214V17.4643ZM14.2857 17.4643C14.2857 16.7539 14.5679 16.0726 15.0702 15.5702C15.5726 15.0679 16.2539 14.7857 16.9643 14.7857H22.3214C23.0318 14.7857 23.7131 15.0679 24.2155 15.5702C24.7178 16.0726 25 16.7539 25 17.4643V22.8214C25 23.5318 24.7178 24.2131 24.2155 24.7155C23.7131 25.2178 23.0318 25.5 22.3214 25.5H16.9643C16.2539 25.5 15.5726 25.2178 15.0702 24.7155C14.5679 24.2131 14.2857 23.5318 14.2857 22.8214V17.4643Z" fill="#E7E7E7"/>
</g>
<defs>
<clipPath id="clip0_208_18">
<rect width="25" height="25" fill="white" transform="translate(0 0.5)"/>
</clipPath>
</defs>
</svg>
