<svg width="25" height="21" viewBox="0 0 25 21" fill="none" xmlns="http://www.w3.org/2000/svg">
<path d="M0 2.16663C0 1.75223 0.16462 1.3548 0.457645 1.06177C0.750671 0.768746 1.1481 0.604126 1.5625 0.604126H17.1875C17.6019 0.604126 17.9993 0.768746 18.2924 1.06177C18.5854 1.3548 18.75 1.75223 18.75 2.16663C18.75 2.58103 18.5854 2.97845 18.2924 3.27148C17.9993 3.56451 17.6019 3.72913 17.1875 3.72913H1.5625C1.1481 3.72913 0.750671 3.56451 0.457645 3.27148C0.16462 2.97845 0 2.58103 0 2.16663ZM0 18.8333C0 18.4189 0.16462 18.0215 0.457645 17.7284C0.750671 17.4354 1.1481 17.2708 1.5625 17.2708H15.1042C15.5186 17.2708 15.916 17.4354 16.209 17.7284C16.502 18.0215 16.6667 18.4189 16.6667 18.8333C16.6667 19.2477 16.502 19.6451 16.209 19.9381C15.916 20.2312 15.5186 20.3958 15.1042 20.3958H1.5625C1.1481 20.3958 0.750671 20.2312 0.457645 19.9381C0.16462 19.6451 0 19.2477 0 18.8333ZM1.5625 8.93746C1.1481 8.93746 0.750671 9.10208 0.457645 9.3951C0.16462 9.68813 0 10.0856 0 10.5C0 10.9144 0.16462 11.3118 0.457645 11.6048C0.750671 11.8978 1.1481 12.0625 1.5625 12.0625H23.4375C23.8519 12.0625 24.2493 11.8978 24.5424 11.6048C24.8354 11.3118 25 10.9144 25 10.5C25 10.0856 24.8354 9.68813 24.5424 9.3951C24.2493 9.10208 23.8519 8.93746 23.4375 8.93746H1.5625Z" fill="#0E0F19"/>
</svg>
