<svg width="25" height="20" viewBox="0 0 25 20" fill="none" xmlns="http://www.w3.org/2000/svg">
<path d="M0 1.66651C0 1.25211 0.16462 0.854678 0.457645 0.561648C0.750671 0.268624 1.1481 0.104004 1.5625 0.104004H17.1875C17.6019 0.104004 17.9993 0.268624 18.2924 0.561648C18.5854 0.854678 18.75 1.25211 18.75 1.66651C18.75 2.08091 18.5854 2.47833 18.2924 2.77136C17.9993 3.06439 17.6019 3.22901 17.1875 3.22901H1.5625C1.1481 3.22901 0.750671 3.06439 0.457645 2.77136C0.16462 2.47833 0 2.08091 0 1.66651ZM0 18.3332C0 17.9188 0.16462 17.5214 0.457645 17.2283C0.750671 16.9353 1.1481 16.7707 1.5625 16.7707H15.1042C15.5186 16.7707 15.916 16.9353 16.209 17.2283C16.502 17.5214 16.6667 17.9188 16.6667 18.3332C16.6667 18.7476 16.502 19.145 16.209 19.438C15.916 19.7311 15.5186 19.8957 15.1042 19.8957H1.5625C1.1481 19.8957 0.750671 19.7311 0.457645 19.438C0.16462 19.145 0 18.7476 0 18.3332ZM1.5625 8.43734C1.1481 8.43734 0.750671 8.60196 0.457645 8.89498C0.16462 9.18801 0 9.58548 0 9.99988C0 10.4143 0.16462 10.8117 0.457645 11.1047C0.750671 11.3977 1.1481 11.5624 1.5625 11.5624H23.4375C23.8519 11.5624 24.2493 11.3977 24.5424 11.1047C24.8354 10.8117 25 10.4143 25 9.99988C25 9.58548 24.8354 9.18801 24.5424 8.89498C24.2493 8.60196 23.8519 8.43734 23.4375 8.43734H1.5625Z" fill="#E7E7E7"/>
</svg>
